<?xml version="1.0" encoding="utf-8"?>
<svg xmlns="http://www.w3.org/2000/svg" version="1.1" viewBox="0 0 240 113">
	<title>And now I love her... till I die!</title>
	<path d="m 123.31044,83.92206 q -0.4375,0 -0.74219,-0.296875 -0.30469,-0.296875 -0.30469,-0.742188 0,-0.429687 0.30469,-0.734375 0.30469,-0.304687 0.74219,-0.304687 0.42969,0 0.73437,0.304687 0.30469,0.304688 0.30469,0.734375 0,0.445313 -0.29687,0.742188 -0.30469,0.296875 -0.74219,0.296875 z"/>
	<path d="m 123.31044,78.836122 q -0.4375,0 -0.74219,-0.296875 -0.30469,-0.296875 -0.30469,-0.742187 0,-0.429688 0.30469,-0.734375 0.30469,-0.304688 0.74219,-0.304688 0.42969,0 0.73437,0.304688 0.30469,0.304687 0.30469,0.734375 0,0.445312 -0.29687,0.742187 -0.30469,0.296875 -0.74219,0.296875 z"/>
	<path d="m 123.31044,73.750185 q -0.4375,0 -0.74219,-0.296875 -0.30469,-0.296875 -0.30469,-0.742188 0,-0.429687 0.30469,-0.734375 0.30469,-0.304687 0.74219,-0.304687 0.42969,0 0.73437,0.304687 0.30469,0.304688 0.30469,0.734375 0,0.445313 -0.29687,0.742188 -0.30469,0.296875 -0.74219,0.296875 z"/>
	<path d="m 123.31044,68.664247 q -0.4375,0 -0.74219,-0.296875 -0.30469,-0.296875 -0.30469,-0.742187 0,-0.429688 0.30469,-0.734375 0.30469,-0.304688 0.74219,-0.304688 0.42969,0 0.73437,0.304688 0.30469,0.304687 0.30469,0.734375 0,0.445312 -0.29687,0.742187 -0.30469,0.296875 -0.74219,0.296875 z"/>
	<path d="m 123.31044,63.57831 q -0.4375,0 -0.74219,-0.296875 -0.30469,-0.296875 -0.30469,-0.742188 0,-0.429687 0.30469,-0.734375 0.30469,-0.304687 0.74219,-0.304687 0.42969,0 0.73437,0.304687 0.30469,0.304688 0.30469,0.734375 0,0.445313 -0.29687,0.742188 -0.30469,0.296875 -0.74219,0.296875 z"/>
	<path d="m 123.31044,58.492372 q -0.4375,0 -0.74219,-0.296875 -0.30469,-0.296875 -0.30469,-0.742187 0,-0.429688 0.30469,-0.734375 0.30469,-0.304688 0.74219,-0.304688 0.42969,0 0.73437,0.304688 0.30469,0.304687 0.30469,0.734375 0,0.445312 -0.29687,0.742187 -0.30469,0.296875 -0.74219,0.296875 z"/>
	<path d="m 123.31044,53.406435 q -0.4375,0 -0.74219,-0.296875 -0.30469,-0.296875 -0.30469,-0.742188 0,-0.429687 0.30469,-0.734375 0.30469,-0.304687 0.74219,-0.304687 0.42969,0 0.73437,0.304687 0.30469,0.304688 0.30469,0.734375 0,0.445313 -0.29687,0.742188 -0.30469,0.296875 -0.74219,0.296875 z"/>
	<path d="m 123.31044,48.320497 q -0.4375,0 -0.74219,-0.296875 -0.30469,-0.296875 -0.30469,-0.742187 0,-0.429688 0.30469,-0.734375 0.30469,-0.304688 0.74219,-0.304688 0.42969,0 0.73437,0.304688 0.30469,0.304687 0.30469,0.734375 0,0.445312 -0.29687,0.742187 -0.30469,0.296875 -0.74219,0.296875 z"/>
	<path d="m 123.31044,43.23456 q -0.4375,0 -0.74219,-0.296875 -0.30469,-0.296875 -0.30469,-0.742188 0,-0.429687 0.30469,-0.734375 0.30469,-0.304687 0.74219,-0.304687 0.42969,0 0.73437,0.304687 0.30469,0.304688 0.30469,0.734375 0,0.445313 -0.29687,0.742188 -0.30469,0.296875 -0.74219,0.296875 z"/>
	<path d="m 123.31044,38.148622 q -0.4375,0 -0.74219,-0.296875 -0.30469,-0.296875 -0.30469,-0.742187 0,-0.429688 0.30469,-0.734375 0.30469,-0.304688 0.74219,-0.304688 0.42969,0 0.73437,0.304688 0.30469,0.304687 0.30469,0.734375 0,0.445312 -0.29687,0.742187 -0.30469,0.296875 -0.74219,0.296875 z"/>
	<path d="m 123.31044,33.062685 q -0.4375,0 -0.74219,-0.296875 -0.30469,-0.296875 -0.30469,-0.742188 0,-0.429687 0.30469,-0.734375 0.30469,-0.304687 0.74219,-0.304687 0.42969,0 0.73437,0.304687 0.30469,0.304688 0.30469,0.734375 0,0.445313 -0.29687,0.742188 -0.30469,0.296875 -0.74219,0.296875 z"/>
	<path d="m 123.31044,27.976747 q -0.4375,0 -0.74219,-0.296875 -0.30469,-0.296875 -0.30469,-0.742187 0,-0.429688 0.30469,-0.734375 0.30469,-0.304688 0.74219,-0.304688 0.42969,0 0.73437,0.304688 0.30469,0.304687 0.30469,0.734375 0,0.445312 -0.29687,0.742187 -0.30469,0.296875 -0.74219,0.296875 z"/>
	<path d="m 123.31044,22.89081 q -0.4375,0 -0.74219,-0.296875 -0.30469,-0.296875 -0.30469,-0.742188 0,-0.429687 0.30469,-0.734375 0.30469,-0.304687 0.74219,-0.304687 0.42969,0 0.73437,0.304687 0.30469,0.304688 0.30469,0.734375 0,0.445313 -0.29687,0.742188 -0.30469,0.296875 -0.74219,0.296875 z"/>
	<path d="m 123.31044,17.804872 q -0.4375,0 -0.74219,-0.296875 -0.30469,-0.296875 -0.30469,-0.742187 0,-0.429688 0.30469,-0.734375 0.30469,-0.304688 0.74219,-0.304688 0.42969,0 0.73437,0.304688 0.30469,0.304687 0.30469,0.734375 0,0.445312 -0.29687,0.742187 -0.30469,0.296875 -0.74219,0.296875 z"/>
	<path d="m 123.31044,12.718935 q -0.4375,0 -0.74219,-0.296875 -0.30469,-0.296875 -0.30469,-0.742188 0,-0.429687 0.30469,-0.734375 0.30469,-0.304687 0.74219,-0.304687 0.42969,0 0.73437,0.304687 0.30469,0.304688 0.30469,0.734375 0,0.445313 -0.29687,0.742188 -0.30469,0.296875 -0.74219,0.296875 z"/>
	<path d="m 3.7382805,28.238279 h 4.2812501 l -2.140625,-5.546875 z m -3.296875,4.226563 V 31.636717 H 1.464843 l 4.15625,-10.835938 h 1.3124996 l 4.1640634,10.835938 h 1.148437 v 0.828125 H 8.0039056 v -0.828125 h 1.296875 l -0.976563,-2.5625 H 3.417968 l -0.9765625,2.5625 h 1.28125 v 0.828125 z"/>
	<path d="m 12.746093,32.464842 v -0.828125 h 1.296875 v -6.640625 h -1.375 v -0.835938 h 2.8125 v 1.476563 q 0.398438,-0.84375 1.03125,-1.273438 0.640625,-0.429687 1.484375,-0.429687 1.375,0 2.023438,0.789062 0.648437,0.789063 0.648437,2.460938 v 4.453125 h 1.28125 v 0.828125 h -3.96875 v -0.828125 h 1.242188 v -4 q 0,-1.523438 -0.375,-2.085938 -0.375,-0.570312 -1.320313,-0.570312 -1,0 -1.523437,0.734375 -0.523438,0.726562 -0.523438,2.125 v 3.796875 h 1.25 v 0.828125 z"/>
	<path d="m 30.792968,31.636717 h 1.375 v 0.828125 h -2.8125 v -1.296875 q -0.421875,0.78125 -1.078125,1.15625 -0.648437,0.367187 -1.609375,0.367187 -1.53125,0 -2.507812,-1.210937 -0.96875,-1.21875 -0.96875,-3.171875 0,-1.953125 0.96875,-3.164063 0.96875,-1.210937 2.507812,-1.210937 0.960938,0 1.609375,0.375 0.65625,0.367187 1.078125,1.148437 v -4.320312 h -1.359375 v -0.828125 h 2.796875 z m -1.4375,-2.914063 v -0.820312 q 0,-1.492188 -0.578125,-2.28125 -0.570312,-0.789063 -1.664062,-0.789063 -1.109375,0 -1.679688,0.875 -0.5625,0.875 -0.5625,2.601563 0,1.71875 0.5625,2.601562 0.570313,0.882813 1.679688,0.882813 1.09375,0 1.664062,-0.78125 0.578125,-0.789063 0.578125,-2.289063 z"/>
	<path d="m 38.378906,52.464842 v -0.828125 h 1.296875 v -6.640625 h -1.375 v -0.835938 h 2.8125 v 1.476563 q 0.398437,-0.84375 1.03125,-1.273438 0.640625,-0.429687 1.484375,-0.429687 1.375,0 2.023437,0.789062 0.648438,0.789063 0.648438,2.460938 v 4.453125 h 1.28125 v 0.828125 h -3.96875 v -0.828125 h 1.242187 v -4 q 0,-1.523438 -0.375,-2.085938 -0.375,-0.570312 -1.320312,-0.570312 -1,0 -1.523438,0.734375 -0.523437,0.726562 -0.523437,2.125 v 3.796875 h 1.25 v 0.828125 z"/>
	<path d="m 52.839843,51.917967 q 1.15625,0 1.742188,-0.914063 0.59375,-0.914062 0.59375,-2.695312 0,-1.78125 -0.59375,-2.6875 -0.585938,-0.914063 -1.742188,-0.914063 -1.15625,0 -1.75,0.914063 -0.585937,0.90625 -0.585937,2.6875 0,1.78125 0.59375,2.695312 0.59375,0.914063 1.742187,0.914063 z m 0,0.773437 q -1.8125,0 -2.914062,-1.195312 -1.101563,-1.203125 -1.101563,-3.1875 0,-1.984375 1.09375,-3.179688 1.101563,-1.195312 2.921875,-1.195312 1.820313,0 2.914063,1.195312 1.101562,1.195313 1.101562,3.179688 0,1.984375 -1.101562,3.1875 -1.09375,1.195312 -2.914063,1.195312 z"/>
	<path d="m 65.339843,44.160154 2.125,6.484375 1.875,-5.648437 h -1.203125 v -0.835938 h 3.007813 v 0.835938 h -0.921875 l -2.46875,7.46875 h -1.195313 l -2.046875,-6.210938 -2.054687,6.210938 h -1.148438 l -2.460937,-7.46875 h -0.929688 v -0.835938 h 3.757813 v 0.835938 h -1.34375 l 1.859375,5.648437 2.140625,-6.484375 z"/>
	<path d="m 80.394531,71.636717 h 1.484375 v 0.828125 h -4.554688 v -0.828125 h 1.484375 v -10 h -1.484375 v -0.835938 h 4.554688 v 0.835938 h -1.484375 z"/>
	<path d="m 91.128906,91.636717 h 1.359375 v 0.828125 h -4.179688 v -0.828125 h 1.382813 v -10.5 h -1.382813 v -0.828125 h 2.820313 z"/>
	<path d="m 97.777345,91.917967 q 1.15625,0 1.74219,-0.914063 0.593745,-0.914062 0.593745,-2.695312 0,-1.78125 -0.593745,-2.6875 -0.58594,-0.914063 -1.74219,-0.914063 -1.15625,0 -1.75,0.914063 -0.585939,0.90625 -0.585939,2.6875 0,1.78125 0.593749,2.695312 0.59375,0.914063 1.74219,0.914063 z m 0,0.773437 q -1.8125,0 -2.914064,-1.195312 -1.101563,-1.203125 -1.101563,-3.1875 0,-1.984375 1.09375,-3.179688 1.101567,-1.195312 2.921877,-1.195312 1.82031,0 2.914055,1.195312 1.10156,1.195313 1.10156,3.179688 0,1.984375 -1.10156,3.1875 -1.093745,1.195312 -2.914055,1.195312 z"/>
	<path d="m 106.55078,92.464842 -3.05469,-7.46875 h -0.94531 v -0.835938 h 3.82031 v 0.835938 h -1.32813 l 2.33594,5.710937 2.33594,-5.710937 h -1.24219 v -0.835938 h 3.11719 v 0.835938 h -0.92969 l -3.05469,7.46875 z"/>
	<path d="m 120.30859,88.464842 h -6.19531 v 0.0625 q 0,1.679687 0.63281,2.539062 0.63281,0.851563 1.86719,0.851563 0.94531,0 1.54687,-0.492188 0.60938,-0.5 0.85156,-1.476562 h 1.15625 q -0.34375,1.367187 -1.27343,2.054687 -0.92188,0.6875 -2.42969,0.6875 -1.82031,0 -2.92969,-1.195312 -1.10156,-1.203125 -1.10156,-3.1875 0,-1.96875 1.08594,-3.171875 1.08593,-1.203125 2.85156,-1.203125 1.88281,0 2.89062,1.164062 1.00782,1.15625 1.04688,3.367188 z m -1.69531,-0.828125 q -0.0469,-1.453125 -0.61719,-2.1875 -0.5625,-0.742188 -1.625,-0.742188 -0.99219,0 -1.5625,0.742188 -0.57031,0.742187 -0.69531,2.1875 z"/>
	<path d="m 126.84765,12.464842 v -0.828125 h 1.29688 V 1.1367164 h -1.375 V 0.30859133 h 2.8125 V 5.6367164 q 0.39843,-0.84375 1.03125,-1.2734375 0.64062,-0.4296875 1.48437,-0.4296875 1.375,0 2.02344,0.7890625 0.64844,0.7890625 0.64844,2.4609375 v 4.4531256 h 1.28125 v 0.828125 h -3.96875 v -0.828125 h 1.24218 V 7.6367164 q 0,-1.5234375 -0.375,-2.078125 -0.36718,-0.5625 -1.32031,-0.5625 -1,0 -1.52344,0.7265625 -0.52343,0.7265625 -0.52343,2.1171875 v 3.7968756 h 1.25 v 0.828125 z"/>
	<path d="m 145.16796,8.4648414 h -6.19531 v 0.0625 q 0,1.6796876 0.63281,2.5390626 0.63282,0.851563 1.86719,0.851563 0.94531,0 1.54688,-0.492188 0.60937,-0.5 0.85156,-1.4765623 h 1.15625 q -0.34375,1.3671873 -1.27344,2.0546873 -0.92187,0.6875 -2.42969,0.6875 -1.82031,0 -2.92968,-1.195312 -1.10157,-1.203125 -1.10157,-3.1875006 0,-1.96875 1.08594,-3.171875 1.08594,-1.203125 2.85156,-1.203125 1.88282,0 2.89063,1.1640625 1.00781,1.15625 1.04687,3.3671875 z m -1.69531,-0.828125 q -0.0469,-1.453125 -0.61719,-2.1875 -0.5625,-0.7421875 -1.625,-0.7421875 -0.99218,0 -1.5625,0.7421875 -0.57031,0.7421875 -0.69531,2.1875 z"/>
	<path d="m 153.61328,4.1445289 v 2.078125 h -0.82813 q -0.0391,-0.6171875 -0.34375,-0.921875 -0.30469,-0.3046875 -0.89062,-0.3046875 -1.0625,0 -1.63282,0.734375 -0.5625,0.734375 -0.5625,2.109375 v 3.7968756 h 1.66407 v 0.828125 h -4.39844 v -0.828125 h 1.29687 V 4.9804664 h -1.375 V 4.1601539 h 2.8125 v 1.4765625 q 0.42188,-0.8671875 1.08594,-1.28125 0.66406,-0.421875 1.61719,-0.421875 0.35156,0 0.73437,0.054687 0.39063,0.054687 0.82032,0.1562505 z"/>
	<path d="m 153.36328,11.652342 q 0,-0.4375 0.29687,-0.742188 0.29688,-0.304687 0.74219,-0.304687 0.42969,0 0.73437,0.304687 0.30469,0.304688 0.30469,0.742188 0,0.429687 -0.30469,0.734375 -0.30468,0.304687 -0.73437,0.304687 -0.44531,0 -0.74219,-0.296875 -0.29687,-0.304687 -0.29687,-0.742187 z"/>
	<path d="m 158.44921,11.652342 q 0,-0.4375 0.29688,-0.742188 0.29687,-0.304687 0.74219,-0.304687 0.42968,0 0.73437,0.304687 0.30469,0.304688 0.30469,0.742188 0,0.429687 -0.30469,0.734375 -0.30469,0.304687 -0.73437,0.304687 -0.44532,0 -0.74219,-0.296875 -0.29688,-0.304687 -0.29688,-0.742187 z"/>
	<path d="m 163.53515,11.652342 q 0,-0.4375 0.29688,-0.742188 0.29687,-0.304687 0.74218,-0.304687 0.42969,0 0.73438,0.304687 0.30469,0.304688 0.30469,0.742188 0,0.429687 -0.30469,0.734375 -0.30469,0.304687 -0.73438,0.304687 -0.44531,0 -0.74218,-0.296875 -0.29688,-0.304687 -0.29688,-0.742187 z"/>
	<path d="m 173.92578,84.996092 h -1.26563 v -0.835938 h 1.26563 v -2.578125 h 1.44531 v 2.578125 h 2.70312 v 0.835938 h -2.70312 v 5.273437 q 0,1.054688 0.20312,1.351563 0.20313,0.296875 0.75,0.296875 0.5625,0 0.82032,-0.328125 0.25781,-0.335938 0.27343,-1.078125 h 1.08594 q -0.0625,1.132812 -0.61719,1.65625 -0.55468,0.523437 -1.6875,0.523437 -1.24218,0 -1.75781,-0.546875 -0.51562,-0.554687 -0.51562,-1.875 z"/>
	<path d="m 180.18359,81.582029 q 0,-0.359375 0.25781,-0.625 0.26563,-0.265625 0.63281,-0.265625 0.35938,0 0.61719,0.265625 0.26563,0.265625 0.26563,0.625 0,0.367188 -0.25782,0.625 -0.25781,0.257813 -0.625,0.257813 -0.36718,0 -0.63281,-0.257813 -0.25781,-0.257812 -0.25781,-0.625 z m 1.83594,10.054688 h 1.35937 v 0.828125 h -4.17187 v -0.828125 h 1.375 v -6.640625 h -1.375 v -0.835938 h 2.8125 z"/>
	<path d="m 187.02734,91.636717 h 1.35937 v 0.828125 h -4.17968 v -0.828125 h 1.38281 v -10.5 h -1.38281 v -0.828125 h 2.82031 z"/>
	<path d="m 192.14453,91.636717 h 1.35937 v 0.828125 h -4.17969 v -0.828125 h 1.38282 v -10.5 h -1.38282 v -0.828125 h 2.82032 z"/>
	<path d="m 203.01953,111.63672 h 1.48437 v 0.82812 h -4.55469 v -0.82812 h 1.48438 v -10 h -1.48438 v -0.83594 h 4.55469 v 0.83594 h -1.48437 z"/>
	<path d="m 218.87109,111.63672 h 1.375 v 0.82812 h -2.8125 v -1.29687 q -0.42188,0.78125 -1.07813,1.15625 -0.64843,0.36719 -1.60937,0.36719 -1.53125,0 -2.50781,-1.21094 -0.96875,-1.21875 -0.96875,-3.17188 0,-1.95312 0.96875,-3.16406 0.96875,-1.21094 2.50781,-1.21094 0.96094,0 1.60937,0.375 0.65625,0.36719 1.07813,1.14844 v -4.32031 h -1.35938 v -0.82813 h 2.79688 z m -1.4375,-2.91406 v -0.82032 q 0,-1.49218 -0.57813,-2.28125 -0.57031,-0.78906 -1.66406,-0.78906 -1.10937,0 -1.67969,0.875 -0.5625,0.875 -0.5625,2.60156 0,1.71875 0.5625,2.60157 0.57032,0.88281 1.67969,0.88281 1.09375,0 1.66406,-0.78125 0.57813,-0.78906 0.57813,-2.28906 z"/>
	<path d="m 222.26953,101.58203 q 0,-0.35937 0.25781,-0.625 0.26562,-0.26562 0.63281,-0.26562 0.35938,0 0.61719,0.26562 0.26562,0.26563 0.26562,0.625 0,0.36719 -0.25781,0.625 -0.25781,0.25781 -0.625,0.25781 -0.36719,0 -0.63281,-0.25781 -0.25781,-0.25781 -0.25781,-0.625 z m 1.83593,10.05469 h 1.35938 v 0.82812 h -4.17188 v -0.82812 h 1.375 v -6.64063 h -1.375 v -0.83593 h 2.8125 z"/>
	<path d="m 234.5039,108.46484 h -6.19531 v 0.0625 q 0,1.67969 0.63281,2.53907 0.63281,0.85156 1.86719,0.85156 0.94531,0 1.54687,-0.49219 0.60938,-0.5 0.85157,-1.47656 h 1.15625 q -0.34375,1.36719 -1.27344,2.05469 -0.92188,0.6875 -2.42969,0.6875 -1.82031,0 -2.92969,-1.19532 -1.10156,-1.20312 -1.10156,-3.1875 0,-1.96875 1.08594,-3.17187 1.08594,-1.20313 2.85156,-1.20313 1.88281,0 2.89063,1.16407 1.00781,1.15625 1.04687,3.36718 z m -1.69531,-0.82812 q -0.0469,-1.45313 -0.61719,-2.1875 -0.5625,-0.74219 -1.625,-0.74219 -0.99219,0 -1.5625,0.74219 -0.57031,0.74219 -0.69531,2.1875 z"/>
	<path d="m 237.48046,111.65234 q 0,-0.4375 0.29688,-0.74218 0.29687,-0.30469 0.74219,-0.30469 0.42968,0 0.73437,0.30469 0.30469,0.30468 0.30469,0.74218 0,0.42969 -0.30469,0.73438 -0.30469,0.30469 -0.73437,0.30469 -0.44532,0 -0.74219,-0.29688 -0.29688,-0.30469 -0.29688,-0.74219 z m 0.0312,-10.85156 h 2.01563 l -0.53125,6.41406 v 1.96875 h -0.96094 v -1.96875 z"/>
	<path d="m 164.59224,83.871523 q -0.4375,0 -0.74219,-0.296875 -0.30469,-0.296875 -0.30469,-0.742188 0,-0.429687 0.30469,-0.734375 0.30469,-0.304687 0.74219,-0.304687 0.42969,0 0.73437,0.304687 0.30469,0.304688 0.30469,0.734375 0,0.445313 -0.29687,0.742188 -0.30469,0.296875 -0.74219,0.296875 z"/>
	<path d="m 164.59224,78.785585 q -0.4375,0 -0.74219,-0.296875 -0.30469,-0.296875 -0.30469,-0.742187 0,-0.429688 0.30469,-0.734375 0.30469,-0.304688 0.74219,-0.304688 0.42969,0 0.73437,0.304688 0.30469,0.304687 0.30469,0.734375 0,0.445312 -0.29687,0.742187 -0.30469,0.296875 -0.74219,0.296875 z"/>
	<path d="m 164.59224,73.699648 q -0.4375,0 -0.74219,-0.296875 -0.30469,-0.296875 -0.30469,-0.742188 0,-0.429687 0.30469,-0.734375 0.30469,-0.304687 0.74219,-0.304687 0.42969,0 0.73437,0.304687 0.30469,0.304688 0.30469,0.734375 0,0.445313 -0.29687,0.742188 -0.30469,0.296875 -0.74219,0.296875 z"/>
	<path d="m 164.59224,68.61371 q -0.4375,0 -0.74219,-0.296875 -0.30469,-0.296875 -0.30469,-0.742187 0,-0.429688 0.30469,-0.734375 0.30469,-0.304688 0.74219,-0.304688 0.42969,0 0.73437,0.304688 0.30469,0.304687 0.30469,0.734375 0,0.445312 -0.29687,0.742187 -0.30469,0.296875 -0.74219,0.296875 z"/>
	<path d="m 164.59224,63.527773 q -0.4375,0 -0.74219,-0.296875 -0.30469,-0.296875 -0.30469,-0.742188 0,-0.429687 0.30469,-0.734375 0.30469,-0.304687 0.74219,-0.304687 0.42969,0 0.73437,0.304687 0.30469,0.304688 0.30469,0.734375 0,0.445313 -0.29687,0.742188 -0.30469,0.296875 -0.74219,0.296875 z"/>
	<path d="m 164.59224,58.441835 q -0.4375,0 -0.74219,-0.296875 -0.30469,-0.296875 -0.30469,-0.742187 0,-0.429688 0.30469,-0.734375 0.30469,-0.304688 0.74219,-0.304688 0.42969,0 0.73437,0.304688 0.30469,0.304687 0.30469,0.734375 0,0.445312 -0.29687,0.742187 -0.30469,0.296875 -0.74219,0.296875 z"/>
	<path d="m 164.59224,53.355898 q -0.4375,0 -0.74219,-0.296875 -0.30469,-0.296875 -0.30469,-0.742188 0,-0.429687 0.30469,-0.734375 0.30469,-0.304687 0.74219,-0.304687 0.42969,0 0.73437,0.304687 0.30469,0.304688 0.30469,0.734375 0,0.445313 -0.29687,0.742188 -0.30469,0.296875 -0.74219,0.296875 z"/>
	<path d="m 164.59224,48.26996 q -0.4375,0 -0.74219,-0.296875 -0.30469,-0.296875 -0.30469,-0.742187 0,-0.429688 0.30469,-0.734375 0.30469,-0.304688 0.74219,-0.304688 0.42969,0 0.73437,0.304688 0.30469,0.304687 0.30469,0.734375 0,0.445312 -0.29687,0.742187 -0.30469,0.296875 -0.74219,0.296875 z"/>
	<path d="m 164.59224,43.184023 q -0.4375,0 -0.74219,-0.296875 -0.30469,-0.296875 -0.30469,-0.742188 0,-0.429687 0.30469,-0.734375 0.30469,-0.304687 0.74219,-0.304687 0.42969,0 0.73437,0.304687 0.30469,0.304688 0.30469,0.734375 0,0.445313 -0.29687,0.742188 -0.30469,0.296875 -0.74219,0.296875 z"/>
	<path d="m 164.59224,38.098085 q -0.4375,0 -0.74219,-0.296875 -0.30469,-0.296875 -0.30469,-0.742187 0,-0.429688 0.30469,-0.734375 0.30469,-0.304688 0.74219,-0.304688 0.42969,0 0.73437,0.304688 0.30469,0.304687 0.30469,0.734375 0,0.445312 -0.29687,0.742187 -0.30469,0.296875 -0.74219,0.296875 z"/>
	<path d="m 164.59224,33.012148 q -0.4375,0 -0.74219,-0.296875 -0.30469,-0.296875 -0.30469,-0.742188 0,-0.429687 0.30469,-0.734375 0.30469,-0.304687 0.74219,-0.304687 0.42969,0 0.73437,0.304687 0.30469,0.304688 0.30469,0.734375 0,0.445313 -0.29687,0.742188 -0.30469,0.296875 -0.74219,0.296875 z"/>
	<path d="m 164.59224,27.92621 q -0.4375,0 -0.74219,-0.296875 -0.30469,-0.296875 -0.30469,-0.742187 0,-0.429688 0.30469,-0.734375 0.30469,-0.304688 0.74219,-0.304688 0.42969,0 0.73437,0.304688 0.30469,0.304687 0.30469,0.734375 0,0.445312 -0.29687,0.742187 -0.30469,0.296875 -0.74219,0.296875 z"/>
	<path d="m 164.59224,22.840273 q -0.4375,0 -0.74219,-0.296875 -0.30469,-0.296875 -0.30469,-0.742188 0,-0.429687 0.30469,-0.734375 0.30469,-0.304687 0.74219,-0.304687 0.42969,0 0.73437,0.304687 0.30469,0.304688 0.30469,0.734375 0,0.445313 -0.29687,0.742188 -0.30469,0.296875 -0.74219,0.296875 z"/>
	<path d="m 164.59224,17.754335 q -0.4375,0 -0.74219,-0.296875 -0.30469,-0.296875 -0.30469,-0.742187 0,-0.429688 0.30469,-0.734375 0.30469,-0.304688 0.74219,-0.304688 0.42969,0 0.73437,0.304688 0.30469,0.304687 0.30469,0.734375 0,0.445312 -0.29687,0.742187 -0.30469,0.296875 -0.74219,0.296875 z"/>
</svg>
