<?xml version="1.0" encoding="utf-8"?>
<svg xmlns="http://www.w3.org/2000/svg" version="1.1" viewBox="0 0 246 53">
	<title>I did but view her passing by …</title>
	<path d="m 3.0703125,51.328125 h 1.484375 V 52.15625 H 0 v -0.828125 h 1.484375 v -10 H 0 v -0.835938 h 4.5546875 v 0.835938 h -1.484375 z"/>
	<path d="m 18.921875,51.328125 h 1.375 v 0.828125 h -2.8125 v -1.296875 q -0.421875,0.78125 -1.078125,1.15625 -0.648437,0.367187 -1.609375,0.367187 -1.53125,0 -2.507812,-1.210937 -0.96875,-1.21875 -0.96875,-3.171875 0,-1.953125 0.96875,-3.164063 0.96875,-1.210937 2.507812,-1.210937 0.960938,0 1.609375,0.375 0.65625,0.367187 1.078125,1.148437 V 40.828125 H 16.125 V 40 h 2.796875 z m -1.4375,-2.914063 V 47.59375 q 0,-1.492188 -0.578125,-2.28125 -0.570312,-0.789063 -1.664062,-0.789063 -1.109375,0 -1.679688,0.875 Q 13,46.273437 13,48 q 0,1.71875 0.5625,2.601562 0.570313,0.882813 1.679688,0.882813 1.09375,0 1.664062,-0.78125 0.578125,-0.789063 0.578125,-2.289063 z"/>
	<path d="m 22.320313,41.273437 q 0,-0.359375 0.257812,-0.625 0.265625,-0.265625 0.632813,-0.265625 0.359375,0 0.617187,0.265625 0.265625,0.265625 0.265625,0.625 0,0.367188 -0.257812,0.625 -0.257813,0.257813 -0.625,0.257813 -0.367188,0 -0.632813,-0.257813 -0.257812,-0.257812 -0.257812,-0.625 z m 1.835937,10.054688 h 1.359375 V 52.15625 H 21.34375 v -0.828125 h 1.375 V 44.6875 h -1.375 v -0.835938 h 2.8125 z"/>
	<path d="m 34.28125,51.328125 h 1.375 v 0.828125 h -2.8125 v -1.296875 q -0.421875,0.78125 -1.078125,1.15625 -0.648437,0.367187 -1.609375,0.367187 -1.53125,0 -2.507812,-1.210937 -0.96875,-1.21875 -0.96875,-3.171875 0,-1.953125 0.96875,-3.164063 0.96875,-1.210937 2.507812,-1.210937 0.960938,0 1.609375,0.375 0.65625,0.367187 1.078125,1.148437 V 40.828125 H 31.484375 V 40 h 2.796875 z m -1.4375,-2.914063 V 47.59375 q 0,-1.492188 -0.578125,-2.28125 -0.570312,-0.789063 -1.664062,-0.789063 -1.109375,0 -1.679688,0.875 -0.5625,0.875 -0.5625,2.601563 0,1.71875 0.5625,2.601562 0.570313,0.882813 1.679688,0.882813 1.09375,0 1.664062,-0.78125 0.578125,-0.789063 0.578125,-2.289063 z"/>
	<path d="m 43.054688,51.328125 v -10.5 H 41.671875 V 40 h 2.820313 v 5.148437 Q 44.914063,44.367187 45.5625,44 q 0.65625,-0.375 1.617188,-0.375 1.53125,0 2.5,1.210937 0.96875,1.210938 0.96875,3.164063 0,1.953125 -0.96875,3.171875 -0.96875,1.210937 -2.5,1.210937 -0.960938,0 -1.617188,-0.367187 -0.648437,-0.375 -1.070312,-1.15625 v 1.296875 h -2.820313 v -0.828125 z m 1.4375,-2.914063 q 0,1.5 0.570312,2.289063 0.578125,0.78125 1.671875,0.78125 1.101563,0 1.664063,-0.882813 Q 48.96875,49.71875 48.96875,48 q 0,-1.726563 -0.570312,-2.601563 -0.5625,-0.875 -1.664063,-0.875 -1.09375,0 -1.671875,0.789063 -0.570312,0.789062 -0.570312,2.28125 z"/>
	<path d="m 57.117188,43.851562 h 2.6875 v 7.476563 h 1.359375 V 52.15625 H 58.367188 V 50.6875 q -0.398438,0.828125 -1.03125,1.265625 -0.632813,0.429687 -1.46875,0.429687 -1.382813,0 -2.039063,-0.78125 -0.648437,-0.789062 -0.648437,-2.46875 V 44.6875 H 51.882813 V 43.851562 H 54.625 V 48.6875 q 0,1.515625 0.367188,2.078125 0.375,0.5625 1.328125,0.5625 1,0 1.523437,-0.734375 0.523438,-0.734375 0.523438,-2.132813 V 44.6875 h -1.25 z"/>
	<path d="M 63.484375,44.6875 H 62.21875 v -0.835938 h 1.265625 v -2.578125 h 1.445313 v 2.578125 h 2.703125 V 44.6875 h -2.703125 v 5.273437 q 0,1.054688 0.203125,1.351563 0.203125,0.296875 0.75,0.296875 0.5625,0 0.820312,-0.328125 0.257813,-0.335938 0.273438,-1.078125 H 68.0625 q -0.0625,1.132812 -0.617187,1.65625 -0.554688,0.523437 -1.6875,0.523437 -1.242188,0 -1.757813,-0.546875 -0.515625,-0.554687 -0.515625,-1.875 z"/>
	<path d="M 77.226563,52.15625 74.171875,44.6875 h -0.945312 v -0.835938 h 3.820312 V 44.6875 H 75.71875 l 2.335938,5.710937 2.335937,-5.710937 h -1.242187 v -0.835938 h 3.117187 V 44.6875 h -0.929687 l -3.054688,7.46875 z"/>
	<path d="m 83.867188,41.273437 q 0,-0.359375 0.257812,-0.625 0.265625,-0.265625 0.632813,-0.265625 0.359375,0 0.617187,0.265625 0.265625,0.265625 0.265625,0.625 0,0.367188 -0.257812,0.625 -0.257813,0.257813 -0.625,0.257813 -0.367188,0 -0.632813,-0.257813 -0.257812,-0.257812 -0.257812,-0.625 z m 1.835937,10.054688 H 87.0625 v 0.828125 h -4.171875 v -0.828125 h 1.375 V 44.6875 h -1.375 v -0.835938 h 2.8125 z"/>
	<path d="M 96.101563,48.15625 H 89.90625 v 0.0625 q 0,1.679687 0.632813,2.539062 0.632812,0.851563 1.867187,0.851563 0.945313,0 1.546875,-0.492188 0.609375,-0.5 0.851563,-1.476562 h 1.15625 q -0.34375,1.367187 -1.273438,2.054687 -0.921875,0.6875 -2.429687,0.6875 -1.820313,0 -2.929688,-1.195312 Q 88.226563,49.984375 88.226563,48 q 0,-1.96875 1.085937,-3.171875 1.085938,-1.203125 2.851563,-1.203125 1.882812,0 2.890625,1.164062 1.007812,1.15625 1.046875,3.367188 z M 94.40625,47.328125 q -0.04687,-1.453125 -0.617187,-2.1875 -0.5625,-0.742188 -1.625,-0.742188 -0.992188,0 -1.5625,0.742188 -0.570313,0.742187 -0.695313,2.1875 z"/>
	<path d="m 104.57812,43.851562 2.125,6.484375 1.875,-5.648437 H 107.375 v -0.835938 h 3.00781 V 44.6875 h -0.92187 l -2.46875,7.46875 h -1.19532 L 103.75,45.945312 101.69531,52.15625 h -1.14844 L 98.085938,44.6875 H 97.15625 v -0.835938 h 3.75781 V 44.6875 h -1.343747 l 1.859377,5.648437 2.14062,-6.484375 z"/>
	<path d="m 116.33594,12.15625 v -0.828125 h 1.29687 v -10.5 h -1.375 V 0 h 2.8125 v 5.328125 q 0.39844,-0.84375 1.03125,-1.2734375 Q 120.74219,3.625 121.58594,3.625 q 1.375,0 2.02343,0.7890625 0.64844,0.7890625 0.64844,2.4609375 v 4.453125 h 1.28125 v 0.828125 h -3.96875 v -0.828125 h 1.24219 v -4 q 0,-1.5234375 -0.375,-2.078125 -0.36719,-0.5625 -1.32031,-0.5625 -1,0 -1.52344,0.7265625 -0.52344,0.7265625 -0.52344,2.1171875 v 3.796875 h 1.25 v 0.828125 z"/>
	<path d="m 134.65625,8.15625 h -6.19531 v 0.0625 q 0,1.6796875 0.63281,2.539062 0.63281,0.851563 1.86719,0.851563 0.94531,0 1.54687,-0.492188 0.60938,-0.5 0.85156,-1.476562 h 1.15625 q -0.34375,1.367187 -1.27343,2.054687 -0.92188,0.6875 -2.42969,0.6875 -1.82031,0 -2.92969,-1.195312 Q 126.78125,9.984375 126.78125,8 q 0,-1.96875 1.08594,-3.171875 1.08593,-1.203125 2.85156,-1.203125 1.88281,0 2.89062,1.1640625 1.00782,1.15625 1.04688,3.3671875 z m -1.69531,-0.828125 q -0.0469,-1.453125 -0.61719,-2.1875 -0.5625,-0.7421875 -1.625,-0.7421875 -0.99219,0 -1.5625,0.7421875 -0.57031,0.7421875 -0.69531,2.1875 z"/>
	<path d="m 143.10156,3.8359375 v 2.078125 h -0.82812 Q 142.23434,5.296875 141.92969,4.9921875 141.625,4.6875 141.03906,4.6875 q -1.0625,0 -1.63281,0.734375 -0.5625,0.734375 -0.5625,2.109375 v 3.796875 h 1.66406 v 0.828125 h -4.39844 v -0.828125 h 1.29688 v -6.65625 h -1.375 V 3.8515625 h 2.8125 V 5.328125 q 0.42187,-0.8671875 1.08594,-1.28125 0.66406,-0.421875 1.61718,-0.421875 0.35157,0 0.73438,0.054687 0.39062,0.054687 0.82031,0.1562505 z"/>
	<path d="m 151.46875,7.59375 v 0.8203125 q 0,1.5 0.57031,2.2890625 0.57813,0.78125 1.67188,0.78125 1.10156,0 1.66406,-0.882813 Q 155.94531,9.71875 155.94531,8 q 0,-1.7265625 -0.57031,-2.6015625 -0.5625,-0.875 -1.66406,-0.875 -1.09375,0 -1.67188,0.7890625 -0.57031,0.7890625 -0.57031,2.28125 z m -1.4375,-2.90625 h -1.38281 V 3.8515625 h 2.82031 v 1.296875 Q 151.89062,4.3671875 152.53906,4 q 0.65625,-0.375 1.61719,-0.375 1.53125,0 2.5,1.2109375 Q 157.625,6.046875 157.625,8 q 0,1.953125 -0.96875,3.171875 -0.96875,1.210937 -2.5,1.210937 -0.96094,0 -1.61719,-0.367187 -0.64844,-0.375 -1.07031,-1.15625 v 3.789062 h 1.35937 v 0.835938 h -4.17968 v -0.835938 h 1.38281 z"/>
	<path d="M 164.79687,9.546875 V 7.7890625 h -1.85156 q -1.07031,0 -1.59375,0.4609375 -0.52344,0.4609375 -0.52344,1.4140625 0,0.8671875 0.53125,1.3749995 0.53125,0.507813 1.4375,0.507813 0.89844,0 1.44532,-0.554688 0.55468,-0.554687 0.55468,-1.445312 z m 1.4375,-2.578125 v 4.359375 h 1.28125 v 0.828125 h -2.71875 v -0.898438 q -0.47656,0.578125 -1.10156,0.851563 -0.625,0.273437 -1.46094,0.273437 -1.38281,0 -2.19531,-0.734375 -0.8125,-0.734375 -0.8125,-1.9843745 0,-1.2890625 0.92969,-2 0.92969,-0.7109375 2.625,-0.7109375 h 2.01562 V 6.3828125 q 0,-0.9453125 -0.57812,-1.4609375 -0.57031,-0.5234375 -1.60938,-0.5234375 -0.85937,0 -1.36718,0.390625 -0.50782,0.390625 -0.63282,1.15625 h -0.74218 V 4.265625 q 0.75,-0.3203125 1.45312,-0.4765625 Q 162.03125,3.625 162.70312,3.625 q 1.72657,0 2.625,0.859375 0.90625,0.8515625 0.90625,2.484375 z"/>
	<path d="M 168.86719,11.695312 V 9.7578125 h 0.82812 q 0.0312,0.9296875 0.57813,1.3906245 0.55468,0.460938 1.63281,0.460938 0.96875,0 1.47656,-0.359375 0.50781,-0.367188 0.50781,-1.0625 0,-0.546875 -0.375,-0.8828125 -0.36718,-0.3359375 -1.5625,-0.71875 L 170.91406,8.234375 q -1.07031,-0.34375 -1.55469,-0.859375 -0.47656,-0.515625 -0.47656,-1.3125 0,-1.140625 0.83594,-1.7890625 Q 170.55469,3.625 172.03125,3.625 q 0.65625,0 1.38281,0.171875 0.72656,0.171875 1.5,0.5 v 1.8125 h -0.82812 q -0.0312,-0.8046875 -0.5625,-1.2578125 -0.53125,-0.453125 -1.44532,-0.453125 -0.90625,0 -1.375,0.3203125 -0.46093,0.3203125 -0.46093,0.9609375 0,0.5234375 0.35156,0.84375 0.35156,0.3125 1.40625,0.640625 l 1.14062,0.3515625 q 1.17969,0.3671875 1.69532,0.921875 0.52343,0.546875 0.52343,1.4140625 0,1.1796875 -0.90625,1.8593745 -0.89843,0.671875 -2.48437,0.671875 -0.80469,0 -1.57031,-0.171875 -0.76563,-0.171875 -1.53125,-0.515625 z"/>
	<path d="M 177.07812,11.695312 V 9.7578125 h 0.82813 q 0.0312,0.9296875 0.57812,1.3906245 0.55469,0.460938 1.63282,0.460938 0.96875,0 1.47656,-0.359375 0.50781,-0.367188 0.50781,-1.0625 0,-0.546875 -0.375,-0.8828125 -0.36719,-0.3359375 -1.5625,-0.71875 L 179.125,8.234375 q -1.07031,-0.34375 -1.55469,-0.859375 -0.47656,-0.515625 -0.47656,-1.3125 0,-1.140625 0.83594,-1.7890625 Q 178.76562,3.625 180.24219,3.625 q 0.65625,0 1.38281,0.171875 0.72656,0.171875 1.5,0.5 v 1.8125 h -0.82813 q -0.0312,-0.8046875 -0.5625,-1.2578125 -0.53125,-0.453125 -1.44531,-0.453125 -0.90625,0 -1.375,0.3203125 -0.46094,0.3203125 -0.46094,0.9609375 0,0.5234375 0.35157,0.84375 0.35156,0.3125 1.40625,0.640625 l 1.14062,0.3515625 q 1.17969,0.3671875 1.69531,0.921875 0.52344,0.546875 0.52344,1.4140625 0,1.1796875 -0.90625,1.8593745 -0.89844,0.671875 -2.48437,0.671875 -0.80469,0 -1.57032,-0.171875 -0.76562,-0.171875 -1.53125,-0.515625 z"/>
	<path d="m 185.94531,21.273437 q 0,-0.359375 0.25781,-0.625 0.26563,-0.265625 0.63282,-0.265625 0.35937,0 0.61718,0.265625 0.26563,0.265625 0.26563,0.625 0,0.367188 -0.25781,0.625 -0.25782,0.257813 -0.625,0.257813 -0.36719,0 -0.63282,-0.257813 -0.25781,-0.257812 -0.25781,-0.625 z m 1.83594,10.054688 h 1.35937 v 0.828125 h -4.17187 v -0.828125 h 1.375 V 24.6875 h -1.375 v -0.835938 h 2.8125 z"/>
	<path d="m 190.16406,32.15625 v -0.828125 h 1.29688 V 24.6875 h -1.375 v -0.835938 h 2.8125 v 1.476563 q 0.39843,-0.84375 1.03125,-1.273438 0.64062,-0.429687 1.48437,-0.429687 1.375,0 2.02344,0.789062 0.64844,0.789063 0.64844,2.460938 v 4.453125 h 1.28125 v 0.828125 h -3.96875 v -0.828125 h 1.24218 v -4 q 0,-1.523438 -0.375,-2.085938 -0.375,-0.570312 -1.32031,-0.570312 -1,0 -1.52344,0.734375 -0.52343,0.726562 -0.52343,2.125 v 3.796875 h 1.25 v 0.828125 z"/>
	<path d="m 208.21094,24.6875 v 7.289062 q 0,1.789063 -0.98438,2.757813 -0.98437,0.976562 -2.80469,0.976562 -0.82031,0 -1.57031,-0.148437 -0.75,-0.148438 -1.4375,-0.445313 V 33.375 h 0.75 q 0.14063,0.8125 0.66406,1.1875 0.52344,0.375 1.5,0.375 1.26563,0 1.85157,-0.71875 0.59375,-0.710938 0.59375,-2.242188 v -1.117187 q -0.42188,0.78125 -1.07813,1.15625 -0.64844,0.367187 -1.60937,0.367187 -1.53125,0 -2.50782,-1.210937 -0.96875,-1.21875 -0.96875,-3.171875 0,-1.953125 0.96875,-3.164063 0.96875,-1.210937 2.50782,-1.210937 0.96093,0 1.60937,0.375 0.65625,0.367187 1.07813,1.148437 v -1.296875 h 2.8125 V 24.6875 Z m -1.4375,2.90625 q 0,-1.492188 -0.57813,-2.28125 -0.57031,-0.789063 -1.66406,-0.789063 -1.10938,0 -1.67969,0.875 -0.5625,0.875 -0.5625,2.601563 0,1.71875 0.5625,2.601562 0.57031,0.882813 1.67969,0.882813 1.09375,0 1.66406,-0.78125 0.57813,-0.789063 0.57813,-2.289063 z"/>
	<path d="m 216.98437,11.328125 v -10.5 h -1.38281 V 0 h 2.82031 V 5.1484375 Q 218.84375,4.3671875 219.49219,4 q 0.65625,-0.375 1.61718,-0.375 1.53125,0 2.5,1.2109375 Q 224.57812,6.046875 224.57812,8 q 0,1.953125 -0.96875,3.171875 -0.96875,1.210937 -2.5,1.210937 -0.96093,0 -1.61718,-0.367187 -0.64844,-0.375 -1.07032,-1.15625 v 1.296875 h -2.82031 v -0.828125 z m 1.4375,-2.9140625 q 0,1.5 0.57032,2.2890625 0.57812,0.78125 1.67187,0.78125 1.10156,0 1.66406,-0.882813 Q 222.89844,9.71875 222.89844,8 q 0,-1.7265625 -0.57032,-2.6015625 -0.5625,-0.875 -1.66406,-0.875 -1.09375,0 -1.67187,0.7890625 -0.57032,0.7890625 -0.57032,2.28125 z"/>
	<path d="m 228.83594,13.679687 0.54687,-1.382812 -3.10156,-7.609375 h -0.94531 V 3.8515625 h 3.82031 V 4.6875 h -1.32813 l 2.33594,5.710937 L 232.5,4.6875 h -1.24219 V 3.8515625 H 234.375 V 4.6875 h -0.92969 l -3.80469,9.34375 Q 229.25,15 228.77344,15.351562 q -0.47657,0.359375 -1.34375,0.359375 -0.36719,0 -0.75782,-0.0625 -0.38281,-0.0625 -0.77343,-0.179687 v -1.585938 h 0.73437 q 0.0469,0.53125 0.26563,0.757813 0.22656,0.234375 0.69531,0.234375 0.42969,0 0.6875,-0.242188 0.26562,-0.234375 0.55469,-0.953125 z"/>
	<path d="m 233.80469,11.34375 q 0,-0.4375 0.29687,-0.742188 0.29688,-0.304687 0.74219,-0.304687 0.42969,0 0.73437,0.304687 0.30469,0.304688 0.30469,0.742188 0,0.429687 -0.30469,0.734375 -0.30468,0.304687 -0.73437,0.304687 -0.44531,0 -0.74219,-0.296875 -0.29687,-0.304687 -0.29687,-0.742187 z"/>
	<path d="m 238.89062,11.34375 q 0,-0.4375 0.29688,-0.742188 0.29687,-0.304687 0.74219,-0.304687 0.42968,0 0.73437,0.304687 0.30469,0.304688 0.30469,0.742188 0,0.429687 -0.30469,0.734375 -0.30469,0.304687 -0.73437,0.304687 -0.44532,0 -0.74219,-0.296875 -0.29688,-0.304687 -0.29688,-0.742187 z"/>
	<path d="m 243.97656,11.34375 q 0,-0.4375 0.29688,-0.742188 0.29687,-0.304687 0.74218,-0.304687 0.42969,0 0.73438,0.304687 0.30469,0.304688 0.30469,0.742188 0,0.429687 -0.30469,0.734375 -0.30469,0.304687 -0.73438,0.304687 -0.44531,0 -0.74218,-0.296875 -0.29688,-0.304687 -0.29688,-0.742187 z"/>
	<path d="m 112.50001,43.227192 v -1.236328 h 1.48828 v 1.236328 z"/>
	<path d="M 112.50001,39.412739 V 38.17641 h 1.48828 v 1.236329 z"/>
	<path d="m 112.50001,35.598285 v -1.236328 h 1.48828 v 1.236328 z"/>
	<path d="m 112.50001,31.783832 v -1.236328 h 1.48828 v 1.236328 z"/>
	<path d="m 112.50001,27.969379 v -1.236328 h 1.48828 v 1.236328 z"/>
	<path d="m 112.50001,24.154926 v -1.236328 h 1.48828 v 1.236328 z"/>
	<path d="m 112.50001,20.340473 v -1.236328 h 1.48828 v 1.236328 z"/>
	<path d="m 112.50001,16.52602 v -1.236328 h 1.48828 v 1.236328 z"/>
	<path d="m 112.50001,12.711567 v -1.236328 h 1.48828 v 1.236328 z"/>
</svg>
