<?xml version="1.0" encoding="utf-8"?>
<svg xmlns="http://www.w3.org/2000/svg" xmlns:svg="http://www.w3.org/2000/svg" version="1.1" viewBox="0 0 313 90">
	<title>Fair and kind... fair and... fair and... fair and kind...</title>
	<path d="m 0.092449,12.16426 v -0.828125 h 1.484375 v -10 H 0.092449 V 0.500197 h 9.546875 v 2.59375 H 8.678386 V 1.461135 H 3.162761 v 3.90625 H 7.147136 V 3.906447 h 0.960938 v 3.875 H 7.147136 V 6.32051 H 3.162761 v 5.015625 h 1.867188 v 0.828125 z"/>
	<path d="M 15.592449,9.554885 V 7.797072 h -1.851563 q -1.070312,0 -1.59375,0.460938 -0.523437,0.460937 -0.523437,1.414062 0,0.867188 0.53125,1.375 0.53125,0.507813 1.4375,0.507813 0.898437,0 1.445312,-0.554688 0.554688,-0.554687 0.554688,-1.445312 z m 1.4375,-2.578125 v 4.359375 h 1.28125 v 0.828125 h -2.71875 v -0.898438 q -0.476563,0.578125 -1.101563,0.851563 -0.625,0.273437 -1.460937,0.273437 -1.382813,0 -2.195313,-0.734375 -0.8125,-0.734375 -0.8125,-1.984375 0,-1.289062 0.929688,-2 0.929687,-0.710937 2.625,-0.710937 h 2.015625 V 6.390822 q 0,-0.945312 -0.578125,-1.460937 -0.570313,-0.523438 -1.609375,-0.523438 -0.859375,0 -1.367188,0.390625 -0.507812,0.390625 -0.632812,1.15625 H 10.662761 V 4.273635 q 0.75,-0.320313 1.453125,-0.476563 0.710938,-0.164062 1.382813,-0.164062 1.726562,0 2.625,0.859375 0.90625,0.851562 0.90625,2.484375 z"/>
	<path d="m 20.319011,1.281447 q 0,-0.359375 0.257813,-0.625 0.265625,-0.265625 0.632812,-0.265625 0.359375,0 0.617188,0.265625 0.265625,0.265625 0.265625,0.625 0,0.367188 -0.257813,0.625 -0.257812,0.257813 -0.625,0.257813 -0.367187,0 -0.632812,-0.257813 -0.257813,-0.257812 -0.257813,-0.625 z m 1.835938,10.054688 h 1.359375 v 0.828125 h -4.171875 v -0.828125 h 1.375 V 4.69551 h -1.375 V 3.859572 h 2.8125 z"/>
	<path d="M 31.529949,3.843947 V 5.922072 H 30.701824 Q 30.662764,5.304885 30.358074,5.000197 30.053386,4.69551 29.467449,4.69551 q -1.0625,0 -1.632813,0.734375 -0.5625,0.734375 -0.5625,2.109375 v 3.796875 h 1.664063 v 0.828125 h -4.398438 v -0.828125 h 1.296875 v -6.65625 h -1.375 V 3.859572 h 2.8125 v 1.476563 q 0.421875,-0.867188 1.085938,-1.28125 0.664062,-0.421875 1.617187,-0.421875 0.351563,0 0.734375,0.05469 0.390625,0.05469 0.820313,0.15625 z"/>
	<path d="m 42.983074,29.554885 v -1.757813 h -1.851563 q -1.070312,0 -1.59375,0.460938 -0.523437,0.460937 -0.523437,1.414062 0,0.867188 0.53125,1.375 0.53125,0.507813 1.4375,0.507813 0.898437,0 1.445312,-0.554688 0.554688,-0.554687 0.554688,-1.445312 z m 1.4375,-2.578125 v 4.359375 h 1.28125 v 0.828125 h -2.71875 v -0.898438 q -0.476563,0.578125 -1.101563,0.851563 -0.625,0.273437 -1.460937,0.273437 -1.382813,0 -2.195313,-0.734375 -0.8125,-0.734375 -0.8125,-1.984375 0,-1.289062 0.929688,-2 0.929687,-0.710937 2.625,-0.710937 h 2.015625 v -0.570313 q 0,-0.945312 -0.578125,-1.460937 -0.570313,-0.523438 -1.609375,-0.523438 -0.859375,0 -1.367188,0.390625 -0.507812,0.390625 -0.632812,1.15625 h -0.742188 v -1.679687 q 0.75,-0.320313 1.453125,-0.476563 0.710938,-0.164062 1.382813,-0.164062 1.726562,0 2.625,0.859375 0.90625,0.851562 0.90625,2.484375 z"/>
	<path d="m 46.811199,32.16426 v -0.828125 h 1.296875 V 24.69551 h -1.375 v -0.835938 h 2.8125 v 1.476563 q 0.398437,-0.84375 1.03125,-1.273438 0.640625,-0.429687 1.484375,-0.429687 1.375,0 2.023437,0.789062 0.648438,0.789063 0.648438,2.460938 v 4.453125 h 1.28125 v 0.828125 h -3.96875 v -0.828125 h 1.242187 v -4 q 0,-1.523438 -0.375,-2.085938 -0.375,-0.570312 -1.320312,-0.570312 -1,0 -1.523438,0.734375 -0.523437,0.726562 -0.523437,2.125 v 3.796875 h 1.25 v 0.828125 z"/>
	<path d="m 64.858074,31.336135 h 1.375 v 0.828125 h -2.8125 v -1.296875 q -0.421875,0.78125 -1.078125,1.15625 -0.648438,0.367187 -1.609375,0.367187 -1.53125,0 -2.507813,-1.210937 -0.96875,-1.21875 -0.96875,-3.171875 0,-1.953125 0.96875,-3.164063 0.96875,-1.210937 2.507813,-1.210937 0.960937,0 1.609375,0.375 0.65625,0.367187 1.078125,1.148437 V 20.836135 H 62.061199 V 20.00801 h 2.796875 z m -1.4375,-2.914063 V 27.60176 q 0,-1.492188 -0.578125,-2.28125 -0.570313,-0.789063 -1.664063,-0.789063 -1.109375,0 -1.679687,0.875 -0.5625,0.875 -0.5625,2.601563 0,1.71875 0.5625,2.601562 0.570312,0.882813 1.679687,0.882813 1.09375,0 1.664063,-0.78125 0.578125,-0.789063 0.578125,-2.289063 z"/>
	<path d="m 76.365886,12.16426 h -4.03125 v -0.828125 h 1.296875 v -10.5 H 72.248699 V 0.00801 h 2.820312 v 7.914062 l 3.5,-3.226562 H 77.373699 V 3.859572 h 3.757812 V 4.69551 h -1.421875 l -2.46875,2.28125 3.15625,4.359375 h 1.195313 v 0.828125 h -4.09375 v -0.828125 h 1.1875 L 76.201824,7.922072 75.069011,8.97676 v 2.359375 h 1.296875 z"/>
	<path d="m 83.037761,1.281447 q 0,-0.359375 0.257813,-0.625 0.265625,-0.265625 0.632812,-0.265625 0.359375,0 0.617188,0.265625 0.265625,0.265625 0.265625,0.625 0,0.367188 -0.257813,0.625 -0.257812,0.257813 -0.625,0.257813 -0.367187,0 -0.632812,-0.257813 -0.257813,-0.257812 -0.257813,-0.625 z m 1.835938,10.054688 h 1.359375 v 0.828125 h -4.171875 v -0.828125 h 1.375 V 4.69551 h -1.375 V 3.859572 h 2.8125 z"/>
	<path d="m 87.256511,12.16426 v -0.828125 h 1.296875 V 4.69551 h -1.375 V 3.859572 h 2.812496 v 1.476563 q 0.39844,-0.84375 1.03125,-1.273438 0.64063,-0.429687 1.48438,-0.429687 1.375,0 2.02344,0.789062 0.64843,0.789063 0.64843,2.460938 v 4.453125 h 1.28125 v 0.828125 h -3.96875 v -0.828125 h 1.24219 v -4 q 0,-1.523438 -0.375,-2.085938 -0.375,-0.570312 -1.32031,-0.570312 -1,0 -1.52344,0.734375 -0.52344,0.726562 -0.52344,2.125 v 3.796875 h 1.25 v 0.828125 z"/>
	<path d="m 105.30338,11.336135 h 1.375 v 0.828125 h -2.8125 v -1.296875 q -0.42187,0.78125 -1.07812,1.15625 -0.64844,0.367187 -1.60938,0.367187 -1.531248,0 -2.507808,-1.210937 -0.96875,-1.21875 -0.96875,-3.171875 0,-1.953125 0.96875,-3.164063 0.96875,-1.210937 2.507808,-1.210937 0.96094,0 1.60938,0.375 0.65625,0.367187 1.07812,1.148437 V 0.836135 h -1.35937 V 0.00801 h 2.79687 z m -1.4375,-2.914063 V 7.60176 q 0,-1.492188 -0.57812,-2.28125 -0.57031,-0.789063 -1.66406,-0.789063 -1.10938,0 -1.679688,0.875 -0.5625,0.875 -0.5625,2.601563 0,1.71875 0.5625,2.601562 0.570308,0.882813 1.679688,0.882813 1.09375,0 1.66406,-0.78125 0.57812,-0.789063 0.57812,-2.289063 z"/>
	<path d="m 113.74088,11.35176 q 0,-0.4375 0.29688,-0.742188 0.29687,-0.304687 0.74219,-0.304687 0.42968,0 0.73437,0.304687 0.30469,0.304688 0.30469,0.742188 0,0.429687 -0.30469,0.734375 -0.30469,0.304687 -0.73437,0.304687 -0.44532,0 -0.74219,-0.296875 -0.29688,-0.304687 -0.29688,-0.742187 z"/>
	<path d="m 118.82682,11.35176 q 0,-0.4375 0.29688,-0.742188 0.29687,-0.304687 0.74218,-0.304687 0.42969,0 0.73438,0.304687 0.30469,0.304688 0.30469,0.742188 0,0.429687 -0.30469,0.734375 -0.30469,0.304687 -0.73438,0.304687 -0.44531,0 -0.74218,-0.296875 -0.29688,-0.304687 -0.29688,-0.742187 z"/>
	<path d="m 123.91276,11.35176 q 0,-0.4375 0.29687,-0.742188 0.29688,-0.304687 0.74219,-0.304687 0.42969,0 0.73438,0.304687 0.30468,0.304688 0.30468,0.742188 0,0.429687 -0.30468,0.734375 -0.30469,0.304687 -0.73438,0.304687 -0.44531,0 -0.74219,-0.296875 -0.29687,-0.304687 -0.29687,-0.742187 z"/>
	<path d="m 1.165363,49.765422 v -0.828125 h 1.484375 v -10 H 1.165363 v -0.835938 h 9.546875 v 2.59375 H 9.751301 V 39.062297 H 4.235676 v 3.90625 h 3.984375 v -1.460938 h 0.960937 v 3.875 H 8.220051 V 43.921672 H 4.235676 v 5.015625 h 1.867187 v 0.828125 z"/>
	<path d="m 16.665363,47.156047 v -1.757813 h -1.851562 q -1.070313,0 -1.59375,0.460938 -0.523438,0.460937 -0.523438,1.414062 0,0.867188 0.53125,1.375 0.53125,0.507813 1.4375,0.507813 0.898438,0 1.445313,-0.554688 0.554687,-0.554687 0.554687,-1.445312 z m 1.4375,-2.578125 v 4.359375 h 1.28125 v 0.828125 h -2.71875 v -0.898438 q -0.476562,0.578125 -1.101562,0.851563 -0.625,0.273437 -1.460938,0.273437 -1.382812,0 -2.195312,-0.734375 -0.8125,-0.734375 -0.8125,-1.984375 0,-1.289062 0.929687,-2 0.929688,-0.710937 2.625,-0.710937 h 2.015625 v -0.570313 q 0,-0.945312 -0.578125,-1.460937 -0.570312,-0.523438 -1.609375,-0.523438 -0.859375,0 -1.367187,0.390625 -0.507813,0.390625 -0.632813,1.15625 h -0.742187 v -1.679687 q 0.75,-0.320313 1.453125,-0.476563 0.710937,-0.164062 1.382812,-0.164062 1.726563,0 2.625,0.859375 0.90625,0.851562 0.90625,2.484375 z"/>
	<path d="m 21.391926,38.882609 q 0,-0.359375 0.257812,-0.625 0.265625,-0.265625 0.632813,-0.265625 0.359375,0 0.617187,0.265625 0.265625,0.265625 0.265625,0.625 0,0.367188 -0.257812,0.625 -0.257813,0.257813 -0.625,0.257813 -0.367188,0 -0.632813,-0.257813 -0.257812,-0.257812 -0.257812,-0.625 z m 1.835937,10.054688 h 1.359375 v 0.828125 h -4.171875 v -0.828125 h 1.375 v -6.640625 h -1.375 v -0.835938 h 2.8125 z"/>
	<path d="m 32.602863,41.445109 v 2.078125 h -0.828125 q -0.03906,-0.617187 -0.34375,-0.921875 -0.304687,-0.304687 -0.890625,-0.304687 -1.0625,0 -1.632812,0.734375 -0.5625,0.734375 -0.5625,2.109375 v 3.796875 h 1.664062 v 0.828125 h -4.398437 v -0.828125 h 1.296875 v -6.65625 h -1.375 v -0.820313 h 2.8125 v 1.476563 q 0.421875,-0.867188 1.085937,-1.28125 0.664063,-0.421875 1.617188,-0.421875 0.351562,0 0.734375,0.05469 0.390625,0.05469 0.820312,0.15625 z"/>
	<path d="m 44.055988,87.156047 v -1.757813 h -1.851562 q -1.070313,0 -1.59375,0.460938 -0.523438,0.460937 -0.523438,1.414062 0,0.867185 0.53125,1.375005 0.53125,0.50781 1.4375,0.50781 0.898438,0 1.445313,-0.55469 0.554687,-0.55469 0.554687,-1.445312 z m 1.4375,-2.578125 v 4.359377 h 1.28125 v 0.82812 h -2.71875 v -0.89843 q -0.476562,0.57812 -1.101562,0.85156 -0.625,0.27344 -1.460938,0.27344 -1.382812,0 -2.195312,-0.73438 -0.8125,-0.73437 -0.8125,-1.984375 0,-1.289062 0.929687,-2 0.929688,-0.710937 2.625,-0.710937 h 2.015625 v -0.570313 q 0,-0.945312 -0.578125,-1.460937 -0.570312,-0.523438 -1.609375,-0.523438 -0.859375,0 -1.367187,0.390625 -0.507813,0.390625 -0.632813,1.15625 h -0.742187 v -1.679687 q 0.75,-0.320313 1.453125,-0.476563 0.710937,-0.164062 1.382812,-0.164062 1.726563,0 2.625,0.859375 0.90625,0.851562 0.90625,2.484375 z"/>
	<path d="m 47.884113,89.765419 v -0.82812 h 1.296875 v -6.640627 h -1.375 v -0.835938 h 2.8125 v 1.476563 q 0.398438,-0.84375 1.03125,-1.273438 0.640625,-0.429687 1.484375,-0.429687 1.375,0 2.023438,0.789062 0.648437,0.789063 0.648437,2.460938 v 4.453127 h 1.28125 v 0.82812 h -3.96875 v -0.82812 h 1.242188 v -4.000002 q 0,-1.523438 -0.375,-2.085938 -0.375,-0.570312 -1.320313,-0.570312 -1,0 -1.523437,0.734375 -0.523438,0.726562 -0.523438,2.125 v 3.796877 h 1.25 v 0.82812 z"/>
	<path d="m 65.930988,88.937299 h 1.375 v 0.82812 h -2.8125 v -1.29687 q -0.421875,0.78125 -1.078125,1.15625 -0.648437,0.36719 -1.609375,0.36719 -1.53125,0 -2.507812,-1.21094 -0.96875,-1.218752 -0.96875,-3.171877 0,-1.953125 0.96875,-3.164063 0.96875,-1.210937 2.507812,-1.210937 0.960938,0 1.609375,0.375 0.65625,0.367187 1.078125,1.148437 v -4.320312 h -1.359375 v -0.828125 h 2.796875 z m -1.4375,-2.914065 v -0.820312 q 0,-1.492188 -0.578125,-2.28125 -0.570312,-0.789063 -1.664062,-0.789063 -1.109375,0 -1.679688,0.875 -0.5625,0.875 -0.5625,2.601563 0,1.71875 0.5625,2.601567 0.570313,0.88281 1.679688,0.88281 1.09375,0 1.664062,-0.78125 0.578125,-0.789065 0.578125,-2.289065 z"/>
	<path d="m 74.368488,88.952919 q 0,-0.4375 0.296875,-0.74218 0.296875,-0.304692 0.742188,-0.304692 0.429687,0 0.734375,0.304692 0.304687,0.30468 0.304687,0.74218 0,0.42969 -0.304687,0.73438 -0.304688,0.30469 -0.734375,0.30469 -0.445313,0 -0.742188,-0.29688 -0.296875,-0.30469 -0.296875,-0.74219 z"/>
	<path d="m 79.454426,88.952919 q 0,-0.4375 0.296875,-0.74218 0.296875,-0.304692 0.742187,-0.304692 0.429688,0 0.734375,0.304692 0.304688,0.30468 0.304688,0.74218 0,0.42969 -0.304688,0.73438 -0.304687,0.30469 -0.734375,0.30469 -0.445312,0 -0.742187,-0.29688 -0.296875,-0.30469 -0.296875,-0.74219 z"/>
	<path d="m 84.540363,88.952919 q 0,-0.4375 0.296875,-0.74218 0.296875,-0.304692 0.742188,-0.304692 0.429687,0 0.734375,0.304692 0.304687,0.30468 0.304687,0.74218 0,0.42969 -0.304687,0.73438 -0.304688,0.30469 -0.734375,0.30469 -0.445313,0 -0.742188,-0.29688 -0.296875,-0.30469 -0.296875,-0.74219 z"/>
	<path d="m 94.087242,49.765422 v -0.828125 h 1.48437 v -10 h -1.48437 v -0.835938 h 9.546868 v 2.59375 h -0.96094 v -1.632812 h -5.515618 v 3.90625 h 3.984368 v -1.460938 h 0.96094 v 3.875 h -0.96094 v -1.460937 h -3.984368 v 5.015625 h 1.86719 v 0.828125 z"/>
	<path d="m 109.58724,47.156047 v -1.757813 h -1.85157 q -1.07031,0 -1.59375,0.460938 -0.52343,0.460937 -0.52343,1.414062 0,0.867188 0.53125,1.375 0.53125,0.507813 1.4375,0.507813 0.89843,0 1.44531,-0.554688 0.55469,-0.554687 0.55469,-1.445312 z m 1.4375,-2.578125 v 4.359375 h 1.28125 v 0.828125 h -2.71875 v -0.898438 q -0.47657,0.578125 -1.10157,0.851563 -0.625,0.273437 -1.46093,0.273437 -1.38282,0 -2.19532,-0.734375 -0.8125,-0.734375 -0.8125,-1.984375 0,-1.289062 0.92969,-2 0.92969,-0.710937 2.625,-0.710937 h 2.01563 v -0.570313 q 0,-0.945312 -0.57813,-1.460937 -0.57031,-0.523438 -1.60937,-0.523438 -0.85938,0 -1.36719,0.390625 -0.50781,0.390625 -0.63281,1.15625 h -0.74219 v -1.679687 q 0.75,-0.320313 1.45312,-0.476563 0.71094,-0.164062 1.38282,-0.164062 1.72656,0 2.625,0.859375 0.90625,0.851562 0.90625,2.484375 z"/>
	<path d="m 114.3138,38.882609 q 0,-0.359375 0.25781,-0.625 0.26563,-0.265625 0.63281,-0.265625 0.35938,0 0.61719,0.265625 0.26563,0.265625 0.26563,0.625 0,0.367188 -0.25782,0.625 -0.25781,0.257813 -0.625,0.257813 -0.36718,0 -0.63281,-0.257813 -0.25781,-0.257812 -0.25781,-0.625 z m 1.83594,10.054688 h 1.35937 v 0.828125 h -4.17187 v -0.828125 h 1.375 v -6.640625 h -1.375 v -0.835938 h 2.8125 z"/>
	<path d="m 125.52474,41.445109 v 2.078125 h -0.82813 q -0.0391,-0.617187 -0.34375,-0.921875 -0.30469,-0.304687 -0.89062,-0.304687 -1.0625,0 -1.63282,0.734375 -0.5625,0.734375 -0.5625,2.109375 v 3.796875 h 1.66407 v 0.828125 h -4.39844 v -0.828125 h 1.29687 v -6.65625 h -1.375 v -0.820313 h 2.8125 v 1.476563 q 0.42188,-0.867188 1.08594,-1.28125 0.66406,-0.421875 1.61719,-0.421875 0.35156,0 0.73437,0.05469 0.39063,0.05469 0.82032,0.15625 z"/>
	<path d="m 136.97786,87.156047 v -1.757813 h -1.85156 q -1.07031,0 -1.59375,0.460938 -0.52344,0.460937 -0.52344,1.414062 0,0.867185 0.53125,1.375005 0.53125,0.50781 1.4375,0.50781 0.89844,0 1.44531,-0.55469 0.55469,-0.55469 0.55469,-1.445312 z m 1.4375,-2.578125 v 4.359377 h 1.28125 v 0.82812 h -2.71875 v -0.89843 q -0.47656,0.57812 -1.10156,0.85156 -0.625,0.27344 -1.46094,0.27344 -1.38281,0 -2.19531,-0.73438 -0.8125,-0.73437 -0.8125,-1.984375 0,-1.289062 0.92969,-2 0.92968,-0.710937 2.625,-0.710937 h 2.01562 v -0.570313 q 0,-0.945312 -0.57812,-1.460937 -0.57032,-0.523438 -1.60938,-0.523438 -0.85937,0 -1.36719,0.390625 -0.50781,0.390625 -0.63281,1.15625 h -0.74219 v -1.679687 q 0.75,-0.320313 1.45313,-0.476563 0.71094,-0.164062 1.38281,-0.164062 1.72656,0 2.625,0.859375 0.90625,0.851562 0.90625,2.484375 z"/>
	<path d="m 140.80599,89.765419 v -0.82812 h 1.29687 v -6.640627 h -1.375 v -0.835938 h 2.8125 v 1.476563 q 0.39844,-0.84375 1.03125,-1.273438 0.64063,-0.429687 1.48438,-0.429687 1.375,0 2.02343,0.789062 0.64844,0.789063 0.64844,2.460938 v 4.453127 h 1.28125 v 0.82812 h -3.96875 v -0.82812 h 1.24219 v -4.000002 q 0,-1.523438 -0.375,-2.085938 -0.375,-0.570312 -1.32031,-0.570312 -1,0 -1.52344,0.734375 -0.52344,0.726562 -0.52344,2.125 v 3.796877 h 1.25 v 0.82812 z"/>
	<path d="m 158.85286,88.937299 h 1.375 v 0.82812 h -2.8125 v -1.29687 q -0.42187,0.78125 -1.07812,1.15625 -0.64844,0.36719 -1.60938,0.36719 -1.53125,0 -2.50781,-1.21094 -0.96875,-1.218752 -0.96875,-3.171877 0,-1.953125 0.96875,-3.164063 0.96875,-1.210937 2.50781,-1.210937 0.96094,0 1.60938,0.375 0.65625,0.367187 1.07812,1.148437 v -4.320312 h -1.35937 v -0.828125 h 2.79687 z m -1.4375,-2.914065 v -0.820312 q 0,-1.492188 -0.57812,-2.28125 -0.57032,-0.789063 -1.66407,-0.789063 -1.10937,0 -1.67968,0.875 -0.5625,0.875 -0.5625,2.601563 0,1.71875 0.5625,2.601567 0.57031,0.88281 1.67968,0.88281 1.09375,0 1.66407,-0.78125 0.57812,-0.789065 0.57812,-2.289065 z"/>
	<path d="m 167.29036,88.952919 q 0,-0.4375 0.29688,-0.74218 0.29687,-0.304692 0.74218,-0.304692 0.42969,0 0.73438,0.304692 0.30469,0.30468 0.30469,0.74218 0,0.42969 -0.30469,0.73438 -0.30469,0.30469 -0.73438,0.30469 -0.44531,0 -0.74218,-0.29688 -0.29688,-0.30469 -0.29688,-0.74219 z"/>
	<path d="m 172.3763,88.952919 q 0,-0.4375 0.29687,-0.74218 0.29688,-0.304692 0.74219,-0.304692 0.42969,0 0.73438,0.304692 0.30468,0.30468 0.30468,0.74218 0,0.42969 -0.30468,0.73438 -0.30469,0.30469 -0.73438,0.30469 -0.44531,0 -0.74219,-0.29688 -0.29687,-0.30469 -0.29687,-0.74219 z"/>
	<path d="m 177.46224,88.952919 q 0,-0.4375 0.29687,-0.74218 0.29688,-0.304692 0.74219,-0.304692 0.42969,0 0.73437,0.304692 0.30469,0.30468 0.30469,0.74218 0,0.42969 -0.30469,0.73438 -0.30468,0.30469 -0.73437,0.30469 -0.44531,0 -0.74219,-0.29688 -0.29687,-0.30469 -0.29687,-0.74219 z"/>
	<path d="m 187.00911,49.765422 v -0.828125 h 1.48438 v -10 h -1.48438 v -0.835938 h 9.54688 v 2.59375 h -0.96094 v -1.632812 h -5.51563 v 3.90625 h 3.98438 v -1.460938 h 0.96094 v 3.875 h -0.96094 v -1.460937 h -3.98438 v 5.015625 h 1.86719 v 0.828125 z"/>
	<path d="m 202.50911,47.156047 v -1.757813 h -1.85156 q -1.07031,0 -1.59375,0.460938 -0.52344,0.460937 -0.52344,1.414062 0,0.867188 0.53125,1.375 0.53125,0.507813 1.4375,0.507813 0.89844,0 1.44531,-0.554688 0.55469,-0.554687 0.55469,-1.445312 z m 1.4375,-2.578125 v 4.359375 h 1.28125 v 0.828125 h -2.71875 v -0.898438 q -0.47656,0.578125 -1.10156,0.851563 -0.625,0.273437 -1.46094,0.273437 -1.38281,0 -2.19531,-0.734375 -0.8125,-0.734375 -0.8125,-1.984375 0,-1.289062 0.92969,-2 0.92968,-0.710937 2.625,-0.710937 h 2.01562 v -0.570313 q 0,-0.945312 -0.57812,-1.460937 -0.57032,-0.523438 -1.60938,-0.523438 -0.85937,0 -1.36719,0.390625 -0.50781,0.390625 -0.63281,1.15625 h -0.74219 v -1.679687 q 0.75,-0.320313 1.45313,-0.476563 0.71094,-0.164062 1.38281,-0.164062 1.72656,0 2.625,0.859375 0.90625,0.851562 0.90625,2.484375 z"/>
	<path d="m 207.23567,38.882609 q 0,-0.359375 0.25782,-0.625 0.26562,-0.265625 0.63281,-0.265625 0.35937,0 0.61719,0.265625 0.26562,0.265625 0.26562,0.625 0,0.367188 -0.25781,0.625 -0.25781,0.257813 -0.625,0.257813 -0.36719,0 -0.63281,-0.257813 -0.25782,-0.257812 -0.25782,-0.625 z m 1.83594,10.054688 h 1.35938 v 0.828125 h -4.17188 v -0.828125 h 1.375 v -6.640625 h -1.375 v -0.835938 h 2.8125 z"/>
	<path d="m 218.44661,41.445109 v 2.078125 h -0.82812 q -0.0391,-0.617187 -0.34375,-0.921875 -0.30469,-0.304687 -0.89063,-0.304687 -1.0625,0 -1.63281,0.734375 -0.5625,0.734375 -0.5625,2.109375 v 3.796875 h 1.66406 v 0.828125 h -4.39844 v -0.828125 h 1.29688 v -6.65625 h -1.375 v -0.820313 h 2.8125 v 1.476563 q 0.42187,-0.867188 1.08594,-1.28125 0.66406,-0.421875 1.61718,-0.421875 0.35157,0 0.73438,0.05469 0.39062,0.05469 0.82031,0.15625 z"/>
	<path d="m 229.89974,87.156047 v -1.757813 h -1.85157 q -1.07031,0 -1.59375,0.460938 -0.52343,0.460937 -0.52343,1.414062 0,0.867185 0.53125,1.375005 0.53125,0.50781 1.4375,0.50781 0.89843,0 1.44531,-0.55469 0.55469,-0.55469 0.55469,-1.445312 z m 1.4375,-2.578125 v 4.359377 h 1.28125 v 0.82812 h -2.71875 v -0.89843 q -0.47657,0.57812 -1.10157,0.85156 -0.625,0.27344 -1.46093,0.27344 -1.38282,0 -2.19532,-0.73438 -0.8125,-0.73437 -0.8125,-1.984375 0,-1.289062 0.92969,-2 0.92969,-0.710937 2.625,-0.710937 h 2.01563 v -0.570313 q 0,-0.945312 -0.57813,-1.460937 -0.57031,-0.523438 -1.60937,-0.523438 -0.85938,0 -1.36719,0.390625 -0.50781,0.390625 -0.63281,1.15625 h -0.74219 v -1.679687 q 0.75,-0.320313 1.45312,-0.476563 0.71094,-0.164062 1.38282,-0.164062 1.72656,0 2.625,0.859375 0.90625,0.851562 0.90625,2.484375 z"/>
	<path d="m 233.72786,89.765419 v -0.82812 h 1.29688 v -6.640627 h -1.375 v -0.835938 h 2.8125 v 1.476563 q 0.39843,-0.84375 1.03125,-1.273438 0.64062,-0.429687 1.48437,-0.429687 1.375,0 2.02344,0.789062 0.64844,0.789063 0.64844,2.460938 v 4.453127 h 1.28125 v 0.82812 h -3.96875 v -0.82812 h 1.24218 v -4.000002 q 0,-1.523438 -0.375,-2.085938 -0.375,-0.570312 -1.32031,-0.570312 -1,0 -1.52344,0.734375 -0.52343,0.726562 -0.52343,2.125 v 3.796877 h 1.25 v 0.82812 z"/>
	<path d="m 251.77474,88.937299 h 1.375 v 0.82812 h -2.8125 v -1.29687 q -0.42188,0.78125 -1.07813,1.15625 -0.64844,0.36719 -1.60937,0.36719 -1.53125,0 -2.50782,-1.21094 -0.96875,-1.218752 -0.96875,-3.171877 0,-1.953125 0.96875,-3.164063 0.96875,-1.210937 2.50782,-1.210937 0.96093,0 1.60937,0.375 0.65625,0.367187 1.07813,1.148437 v -4.320312 h -1.35938 v -0.828125 h 2.79688 z m -1.4375,-2.914065 v -0.820312 q 0,-1.492188 -0.57813,-2.28125 -0.57031,-0.789063 -1.66406,-0.789063 -1.10938,0 -1.67969,0.875 -0.5625,0.875 -0.5625,2.601563 0,1.71875 0.5625,2.601567 0.57031,0.88281 1.67969,0.88281 1.09375,0 1.66406,-0.78125 0.57813,-0.789065 0.57813,-2.289065 z"/>
	<path d="m 263.28255,69.765422 h -4.03125 v -0.828125 h 1.29687 v -10.5 h -1.38281 v -0.828125 h 2.82031 v 7.914062 l 3.5,-3.226562 h -1.19531 v -0.835938 h 3.75781 v 0.835938 h -1.42187 l -2.46875,2.28125 3.15625,4.359375 h 1.19531 v 0.828125 h -4.09375 v -0.828125 h 1.1875 l -2.48437,-3.414063 -1.13282,1.054688 v 2.359375 h 1.29688 z"/>
	<path d="m 269.95442,58.882609 q 0,-0.359375 0.25782,-0.625 0.26562,-0.265625 0.63281,-0.265625 0.35937,0 0.61719,0.265625 0.26562,0.265625 0.26562,0.625 0,0.367188 -0.25781,0.625 -0.25781,0.257813 -0.625,0.257813 -0.36719,0 -0.63281,-0.257813 -0.25782,-0.257812 -0.25782,-0.625 z m 1.83594,10.054688 h 1.35938 v 0.828125 h -4.17188 v -0.828125 h 1.375 v -6.640625 h -1.375 v -0.835938 h 2.8125 z"/>
	<path d="m 274.17317,69.765422 v -0.828125 h 1.29688 v -6.640625 h -1.375 v -0.835938 h 2.8125 v 1.476563 q 0.39844,-0.84375 1.03125,-1.273438 0.64062,-0.429687 1.48437,-0.429687 1.375,0 2.02344,0.789062 0.64844,0.789063 0.64844,2.460938 v 4.453125 h 1.28125 v 0.828125 h -3.96875 v -0.828125 h 1.24219 v -4 q 0,-1.523438 -0.375,-2.085938 -0.375,-0.570312 -1.32032,-0.570312 -1,0 -1.52343,0.734375 -0.52344,0.726562 -0.52344,2.125 v 3.796875 h 1.25 v 0.828125 z"/>
	<path d="m 292.22005,68.937297 h 1.375 v 0.828125 h -2.8125 v -1.296875 q -0.42188,0.78125 -1.07813,1.15625 -0.64843,0.367187 -1.60937,0.367187 -1.53125,0 -2.50781,-1.210937 -0.96875,-1.21875 -0.96875,-3.171875 0,-1.953125 0.96875,-3.164063 0.96875,-1.210937 2.50781,-1.210937 0.96094,0 1.60937,0.375 0.65625,0.367187 1.07813,1.148437 v -4.320312 h -1.35938 v -0.828125 h 2.79688 z m -1.4375,-2.914063 v -0.820312 q 0,-1.492188 -0.57813,-2.28125 -0.57031,-0.789063 -1.66406,-0.789063 -1.10937,0 -1.67969,0.875 -0.5625,0.875 -0.5625,2.601563 0,1.71875 0.5625,2.601562 0.57032,0.882813 1.67969,0.882813 1.09375,0 1.66406,-0.78125 0.57813,-0.789063 0.57813,-2.289063 z"/>
	<path d="m 300.65755,68.952922 q 0,-0.4375 0.29687,-0.742188 0.29688,-0.304687 0.74219,-0.304687 0.42969,0 0.73438,0.304687 0.30468,0.304688 0.30468,0.742188 0,0.429687 -0.30468,0.734375 -0.30469,0.304687 -0.73438,0.304687 -0.44531,0 -0.74219,-0.296875 -0.29687,-0.304687 -0.29687,-0.742187 z"/>
	<path d="m 305.74349,68.952922 q 0,-0.4375 0.29687,-0.742188 0.29688,-0.304687 0.74219,-0.304687 0.42969,0 0.73437,0.304687 0.30469,0.304688 0.30469,0.742188 0,0.429687 -0.30469,0.734375 -0.30468,0.304687 -0.73437,0.304687 -0.44531,0 -0.74219,-0.296875 -0.29687,-0.304687 -0.29687,-0.742187 z"/>
	<path d="m 310.82942,68.952922 q 0,-0.4375 0.29688,-0.742188 0.29687,-0.304687 0.74219,-0.304687 0.42968,0 0.73437,0.304687 0.30469,0.304688 0.30469,0.742188 0,0.429687 -0.30469,0.734375 -0.30469,0.304687 -0.73437,0.304687 -0.44532,0 -0.74219,-0.296875 -0.29688,-0.304687 -0.29688,-0.742187 z"/>
</svg>
