<?xml version="1.0" encoding="utf-8"?>
<svg xmlns="http://www.w3.org/2000/svg" version="1.1" viewBox="0 0 278 130">
	<title>I know a lady fair and kind / Was never face so please my mind</title>
	<path d="M 3.1705725,31.660545 H 4.6549476 V 32.48867 H 0.10026 v -0.828125 h 1.484375 v -10 H 0.10026 v -0.835938 h 4.5546876 v 0.835938 H 3.1705725 Z"/>
	<path d="m 15.201823,32.48867 h -4.03125 v -0.828125 h 1.296875 v -10.5 H 11.084635 V 20.33242 h 2.820313 v 7.914062 l 3.5,-3.226562 h -1.195313 v -0.835938 h 3.757813 v 0.835938 h -1.421875 l -2.46875,2.28125 3.15625,4.359375 h 1.195312 v 0.828125 h -4.09375 v -0.828125 h 1.1875 L 15.03776,28.246482 13.904948,29.30117 v 2.359375 h 1.296875 z"/>
	<path d="m 20.97526,32.48867 v -0.828125 h 1.296875 V 25.01992 h -1.375 v -0.835938 h 2.8125 v 1.476563 q 0.398438,-0.84375 1.03125,-1.273438 0.640625,-0.429687 1.484375,-0.429687 1.375,0 2.023438,0.789062 0.648437,0.789063 0.648437,2.460938 v 4.453125 h 1.28125 v 0.828125 h -3.96875 v -0.828125 h 1.242188 v -4 q 0,-1.523438 -0.375,-2.085938 -0.375,-0.570312 -1.320313,-0.570312 -1,0 -1.523437,0.734375 -0.523438,0.726562 -0.523438,2.125 v 3.796875 h 1.25 v 0.828125 z"/>
	<path d="m 35.436198,31.941795 q 1.15625,0 1.742187,-0.914063 0.59375,-0.914062 0.59375,-2.695312 0,-1.78125 -0.59375,-2.6875 -0.585937,-0.914063 -1.742187,-0.914063 -1.15625,0 -1.75,0.914063 -0.585938,0.90625 -0.585938,2.6875 0,1.78125 0.59375,2.695312 0.59375,0.914063 1.742188,0.914063 z m 0,0.773437 q -1.8125,0 -2.914063,-1.195312 -1.101562,-1.203125 -1.101562,-3.1875 0,-1.984375 1.09375,-3.179688 1.101562,-1.195312 2.921875,-1.195312 1.820312,0 2.914062,1.195312 1.101563,1.195313 1.101563,3.179688 0,1.984375 -1.101563,3.1875 -1.09375,1.195312 -2.914062,1.195312 z"/>
	<path d="m 47.936198,24.183982 2.125,6.484375 1.875,-5.648437 h -1.203125 v -0.835938 h 3.007812 V 25.01992 H 52.81901 l -2.46875,7.46875 H 49.154948 L 47.108073,26.277732 45.053385,32.48867 H 43.904948 L 41.44401,25.01992 h -0.929687 v -0.835938 h 3.757812 v 0.835938 h -1.34375 l 1.859375,5.648437 2.140625,-6.484375 z"/>
	<path d="m 65.404948,29.879295 v -1.757813 h -1.851563 q -1.070312,0 -1.59375,0.460938 -0.523437,0.460937 -0.523437,1.414062 0,0.867188 0.53125,1.375 0.53125,0.507813 1.4375,0.507813 0.898437,0 1.445312,-0.554688 0.554688,-0.554687 0.554688,-1.445312 z m 1.4375,-2.578125 v 4.359375 h 1.28125 v 0.828125 h -2.71875 v -0.898438 q -0.476563,0.578125 -1.101563,0.851563 -0.625,0.273437 -1.460937,0.273437 -1.382813,0 -2.195313,-0.734375 -0.8125,-0.734375 -0.8125,-1.984375 0,-1.289062 0.929688,-2 0.929687,-0.710937 2.625,-0.710937 h 2.015625 v -0.570313 q 0,-0.945312 -0.578125,-1.460937 -0.570313,-0.523438 -1.609375,-0.523438 -0.859375,0 -1.367188,0.390625 -0.507812,0.390625 -0.632812,1.15625 H 60.47526 v -1.679687 q 0.75,-0.320313 1.453125,-0.476563 0.710938,-0.164062 1.382813,-0.164062 1.726562,0 2.625,0.859375 0.90625,0.851562 0.90625,2.484375 z"/>
	<path d="m 76.94401,31.660545 h 1.359375 v 0.828125 h -4.179687 v -0.828125 h 1.382812 v -10.5 H 74.123698 V 20.33242 h 2.820312 z"/>
	<path d="m 85.147135,29.879295 v -1.757813 h -1.851562 q -1.070313,0 -1.59375,0.460938 -0.523438,0.460937 -0.523438,1.414062 0,0.867188 0.53125,1.375 0.53125,0.507813 1.4375,0.507813 0.898438,0 1.445313,-0.554688 0.554687,-0.554687 0.554687,-1.445312 z m 1.4375,-2.578125 v 4.359375 h 1.28125 v 0.828125 h -2.71875 v -0.898438 q -0.476562,0.578125 -1.101562,0.851563 -0.625,0.273437 -1.460938,0.273437 -1.382812,0 -2.195312,-0.734375 -0.8125,-0.734375 -0.8125,-1.984375 0,-1.289062 0.929687,-2 0.929688,-0.710937 2.625,-0.710937 h 2.015625 v -0.570313 q 0,-0.945312 -0.578125,-1.460937 -0.570312,-0.523438 -1.609375,-0.523438 -0.859375,0 -1.367187,0.390625 -0.507813,0.390625 -0.632813,1.15625 h -0.742187 v -1.679687 q 0.75,-0.320313 1.453125,-0.476563 0.710937,-0.164062 1.382812,-0.164062 1.726563,0 2.625,0.859375 0.90625,0.851562 0.90625,2.484375 z"/>
	<path d="m 96.717447,11.660545 h 1.375 v 0.828125 h -2.8125 v -1.296875 q -0.42187,0.78125 -1.078124,1.15625 -0.648438,0.367187 -1.609375,0.367187 -1.53125,0 -2.507813,-1.210937 -0.96875,-1.21875 -0.96875,-3.171875 0,-1.953125 0.96875,-3.1640625 0.96875,-1.2109375 2.507813,-1.2109375 0.960937,0 1.609375,0.375 0.656254,0.3671875 1.078124,1.1484375 V 1.160545 H 93.920573 V 0.33242 h 2.796874 z m -1.4375,-2.9140625 V 7.92617 q 0,-1.4921875 -0.57812,-2.28125 -0.570317,-0.7890625 -1.664067,-0.7890625 -1.109375,0 -1.679687,0.875 -0.5625,0.875 -0.5625,2.6015625 0,1.71875 0.5625,2.601562 0.570312,0.882813 1.679687,0.882813 1.09375,0 1.664067,-0.78125 0.57812,-0.789063 0.57812,-2.2890625 z"/>
	<path d="M 102.01433,14.012107 102.5612,12.629295 99.459637,5.01992 h -0.94531 V 4.1839825 h 3.820313 V 5.01992 h -1.32813 l 2.33594,5.710937 2.33594,-5.710937 H 104.4362 V 4.1839825 h 3.11719 V 5.01992 h -0.92969 l -3.80469,9.34375 q -0.39062,0.96875 -0.86718,1.320312 -0.47657,0.359375 -1.34375,0.359375 -0.36719,0 -0.757823,-0.0625 -0.38281,-0.0625 -0.77343,-0.179687 v -1.585938 h 0.73437 q 0.0469,0.53125 0.265633,0.757813 0.22656,0.234375 0.69531,0.234375 0.42969,0 0.6875,-0.242188 0.26562,-0.234375 0.55469,-0.953125 z"/>
	<path d="m 119.56901,22.293357 h -0.75781 q -0.008,-0.585937 -0.33594,-0.890625 -0.32031,-0.304687 -0.9375,-0.304687 -0.80468,0 -1.13281,0.445312 -0.32812,0.4375 -0.32812,1.570313 v 1.070312 h 2.32031 v 0.835938 h -2.32031 v 6.640625 h 1.84375 v 0.828125 h -4.65625 v -0.828125 h 1.375 V 25.01992 h -1.375 v -0.835938 h 1.375 V 23.14492 q 0,-1.390625 0.71875,-2.101563 0.72656,-0.710937 2.125,-0.710937 0.52343,0 1.04687,0.09375 0.52344,0.09375 1.03906,0.289062 z"/>
	<path d="m 124.97526,29.879295 v -1.757813 h -1.85156 q -1.07031,0 -1.59375,0.460938 -0.52344,0.460937 -0.52344,1.414062 0,0.867188 0.53125,1.375 0.53125,0.507813 1.4375,0.507813 0.89844,0 1.44532,-0.554688 0.55468,-0.554687 0.55468,-1.445312 z m 1.4375,-2.578125 v 4.359375 h 1.28125 v 0.828125 h -2.71875 v -0.898438 q -0.47656,0.578125 -1.10156,0.851563 -0.625,0.273437 -1.46094,0.273437 -1.38281,0 -2.19531,-0.734375 -0.8125,-0.734375 -0.8125,-1.984375 0,-1.289062 0.92969,-2 0.92969,-0.710937 2.625,-0.710937 h 2.01562 v -0.570313 q 0,-0.945312 -0.57812,-1.460937 -0.57031,-0.523438 -1.60938,-0.523438 -0.85937,0 -1.36718,0.390625 -0.50782,0.390625 -0.63282,1.15625 h -0.74218 v -1.679687 q 0.75,-0.320313 1.45312,-0.476563 0.71094,-0.164062 1.38281,-0.164062 1.72657,0 2.625,0.859375 0.90625,0.851562 0.90625,2.484375 z"/>
	<path d="m 129.70183,21.605857 q 0,-0.359375 0.25781,-0.625 0.26562,-0.265625 0.63281,-0.265625 0.35938,0 0.61719,0.265625 0.26562,0.265625 0.26562,0.625 0,0.367188 -0.25781,0.625 -0.25781,0.257813 -0.625,0.257813 -0.36719,0 -0.63281,-0.257813 -0.25781,-0.257812 -0.25781,-0.625 z m 1.83593,10.054688 h 1.35938 v 0.828125 h -4.17188 v -0.828125 h 1.375 V 25.01992 h -1.375 v -0.835938 h 2.8125 z"/>
	<path d="m 140.91276,24.168357 v 2.078125 h -0.82812 q -0.0391,-0.617187 -0.34375,-0.921875 -0.30469,-0.304687 -0.89063,-0.304687 -1.0625,0 -1.63281,0.734375 -0.5625,0.734375 -0.5625,2.109375 v 3.796875 h 1.66406 v 0.828125 h -4.39843 v -0.828125 h 1.29687 v -6.65625 h -1.375 v -0.820313 h 2.8125 v 1.476563 q 0.42188,-0.867188 1.08594,-1.28125 0.66406,-0.421875 1.61719,-0.421875 0.35156,0 0.73437,0.05469 0.39063,0.05469 0.82031,0.15625 z"/>
	<path d="m 152.36589,49.879295 v -1.757813 h -1.85156 q -1.07032,0 -1.59375,0.460938 -0.52344,0.460937 -0.52344,1.414062 0,0.867188 0.53125,1.375 0.53125,0.507813 1.4375,0.507813 0.89844,0 1.44531,-0.554688 0.55469,-0.554687 0.55469,-1.445312 z m 1.4375,-2.578125 v 4.359375 h 1.28125 v 0.828125 h -2.71875 v -0.898438 q -0.47656,0.578125 -1.10156,0.851563 -0.625,0.273437 -1.46094,0.273437 -1.38281,0 -2.19531,-0.734375 -0.8125,-0.734375 -0.8125,-1.984375 0,-1.289062 0.92968,-2 0.92969,-0.710937 2.625,-0.710937 h 2.01563 v -0.570313 q 0,-0.945312 -0.57813,-1.460937 -0.57031,-0.523438 -1.60937,-0.523438 -0.85938,0 -1.36719,0.390625 -0.50781,0.390625 -0.63281,1.15625 h -0.74219 v -1.679687 q 0.75,-0.320313 1.45313,-0.476563 0.71093,-0.164062 1.38281,-0.164062 1.72656,0 2.625,0.859375 0.90625,0.851562 0.90625,2.484375 z"/>
	<path d="m 156.19401,52.48867 v -0.828125 h 1.29688 V 45.01992 h -1.375 v -0.835938 h 2.8125 v 1.476563 q 0.39844,-0.84375 1.03125,-1.273438 0.64062,-0.429687 1.48437,-0.429687 1.375,0 2.02344,0.789062 0.64844,0.789063 0.64844,2.460938 v 4.453125 h 1.28125 v 0.828125 h -3.96875 v -0.828125 h 1.24219 v -4 q 0,-1.523438 -0.375,-2.085938 -0.375,-0.570312 -1.32032,-0.570312 -1,0 -1.52343,0.734375 -0.52344,0.726562 -0.52344,2.125 v 3.796875 h 1.25 v 0.828125 z"/>
	<path d="m 174.24089,51.660545 h 1.375 v 0.828125 h -2.8125 v -1.296875 q -0.42188,0.78125 -1.07813,1.15625 -0.64843,0.367187 -1.60937,0.367187 -1.53125,0 -2.50781,-1.210937 -0.96875,-1.21875 -0.96875,-3.171875 0,-1.953125 0.96875,-3.164063 0.96875,-1.210937 2.50781,-1.210937 0.96094,0 1.60937,0.375 0.65625,0.367187 1.07813,1.148437 v -4.320312 h -1.35938 V 40.33242 h 2.79688 z m -1.4375,-2.914063 V 47.92617 q 0,-1.492188 -0.57813,-2.28125 -0.57031,-0.789063 -1.66406,-0.789063 -1.10937,0 -1.67969,0.875 -0.5625,0.875 -0.5625,2.601563 0,1.71875 0.5625,2.601562 0.57032,0.882813 1.67969,0.882813 1.09375,0 1.66406,-0.78125 0.57813,-0.789063 0.57813,-2.289063 z"/>
	<path d="m 185.7487,32.48867 h -4.03125 v -0.828125 h 1.29688 v -10.5 h -1.38282 V 20.33242 h 2.82032 v 7.914062 l 3.5,-3.226562 h -1.19532 v -0.835938 h 3.75782 v 0.835938 h -1.42188 l -2.46875,2.28125 3.15625,4.359375 h 1.19531 v 0.828125 h -4.09375 v -0.828125 h 1.1875 l -2.48437,-3.414063 -1.13281,1.054688 v 2.359375 h 1.29687 z"/>
	<path d="m 192.42058,21.605857 q 0,-0.359375 0.25781,-0.625 0.26562,-0.265625 0.63281,-0.265625 0.35938,0 0.61719,0.265625 0.26562,0.265625 0.26562,0.625 0,0.367188 -0.25781,0.625 -0.25781,0.257813 -0.625,0.257813 -0.36719,0 -0.63281,-0.257813 -0.25781,-0.257812 -0.25781,-0.625 z m 1.83593,10.054688 h 1.35938 v 0.828125 h -4.17188 v -0.828125 h 1.375 V 25.01992 h -1.375 v -0.835938 h 2.8125 z"/>
	<path d="m 196.63933,32.48867 v -0.828125 h 1.29687 V 25.01992 h -1.375 v -0.835938 h 2.8125 v 1.476563 q 0.39844,-0.84375 1.03125,-1.273438 0.64063,-0.429687 1.48438,-0.429687 1.375,0 2.02343,0.789062 0.64844,0.789063 0.64844,2.460938 v 4.453125 h 1.28125 v 0.828125 h -3.96875 v -0.828125 h 1.24219 v -4 q 0,-1.523438 -0.375,-2.085938 -0.375,-0.570312 -1.32031,-0.570312 -1,0 -1.52344,0.734375 -0.52344,0.726562 -0.52344,2.125 v 3.796875 h 1.25 v 0.828125 z"/>
	<path d="m 214.6862,31.660545 h 1.375 v 0.828125 h -2.8125 v -1.296875 q -0.42187,0.78125 -1.07812,1.15625 -0.64844,0.367187 -1.60938,0.367187 -1.53125,0 -2.50781,-1.210937 -0.96875,-1.21875 -0.96875,-3.171875 0,-1.953125 0.96875,-3.164063 0.96875,-1.210937 2.50781,-1.210937 0.96094,0 1.60938,0.375 0.65625,0.367187 1.07812,1.148437 v -4.320312 h -1.35937 V 20.33242 h 2.79687 z m -1.4375,-2.914063 V 27.92617 q 0,-1.492188 -0.57812,-2.28125 -0.57032,-0.789063 -1.66407,-0.789063 -1.10937,0 -1.67968,0.875 -0.5625,0.875 -0.5625,2.601563 0,1.71875 0.5625,2.601562 0.57031,0.882813 1.67968,0.882813 1.09375,0 1.66407,-0.78125 0.57812,-0.789063 0.57812,-2.289063 z"/>
	<path d="m 12.485675,70.089832 h -1.28125 l -2.6718754,-9.484375 -2.671875,9.484375 h -1.28125 L 1.5247376,59.261707 h -1.15625 v -0.835938 h 4.257812 v 0.835938 H 3.1731751 l 2.4296875,8.617187 2.65625,-9.453125 h 1.265625 l 2.7031254,9.554688 2.445312,-8.71875 h -1.34375 V 58.425769 H 16.6888 v 0.835938 h -1.148437 z"/>
	<path d="m 21.712238,67.480457 v -1.757813 h -1.851563 q -1.070312,0 -1.59375,0.460938 -0.523437,0.460937 -0.523437,1.414062 0,0.867188 0.53125,1.375 0.53125,0.507813 1.4375,0.507813 0.898437,0 1.445312,-0.554688 0.554688,-0.554687 0.554688,-1.445312 z m 1.4375,-2.578125 v 4.359375 h 1.28125 v 0.828125 h -2.71875 v -0.898438 q -0.476563,0.578125 -1.101563,0.851563 -0.625,0.273437 -1.460937,0.273437 -1.382813,0 -2.195313,-0.734375 -0.8125,-0.734375 -0.8125,-1.984375 0,-1.289062 0.929688,-2 0.929687,-0.710937 2.625,-0.710937 h 2.015625 v -0.570313 q 0,-0.945312 -0.578125,-1.460937 -0.570313,-0.523438 -1.609375,-0.523438 -0.859375,0 -1.367188,0.390625 -0.507812,0.390625 -0.632812,1.15625 H 16.78255 v -1.679687 q 0.75,-0.320313 1.453125,-0.476563 0.710938,-0.164062 1.382813,-0.164062 1.726562,0 2.625,0.859375 0.90625,0.851562 0.90625,2.484375 z"/>
	<path d="m 25.78255,69.628894 v -1.9375 h 0.828125 q 0.03125,0.929688 0.578125,1.390625 0.554688,0.460938 1.632813,0.460938 0.96875,0 1.476562,-0.359375 0.507813,-0.367188 0.507813,-1.0625 0,-0.546875 -0.375,-0.882813 -0.367188,-0.335937 -1.5625,-0.71875 l -1.039063,-0.351562 q -1.070312,-0.34375 -1.554687,-0.859375 -0.476563,-0.515625 -0.476563,-1.3125 0,-1.140625 0.835938,-1.789063 0.835937,-0.648437 2.3125,-0.648437 0.65625,0 1.382812,0.171875 0.726563,0.171875 1.5,0.5 v 1.8125 H 31.0013 q -0.03125,-0.804688 -0.5625,-1.257813 -0.53125,-0.453125 -1.445312,-0.453125 -0.90625,0 -1.375,0.320313 -0.460938,0.320312 -0.460938,0.960937 0,0.523438 0.351563,0.84375 0.351562,0.3125 1.40625,0.640625 l 1.140625,0.351563 q 1.179687,0.367187 1.695312,0.921875 0.523438,0.546875 0.523438,1.414062 0,1.179688 -0.90625,1.859375 -0.898438,0.671875 -2.484375,0.671875 -0.804688,0 -1.570313,-0.171875 -0.765625,-0.171875 -1.53125,-0.515625 z"/>
	<path d="m 38.837238,70.089832 v -0.828125 h 1.296875 v -6.640625 h -1.375 v -0.835938 h 2.8125 v 1.476563 q 0.398437,-0.84375 1.03125,-1.273438 0.640625,-0.429687 1.484375,-0.429687 1.375,0 2.023437,0.789062 0.648438,0.789063 0.648438,2.460938 v 4.453125 h 1.28125 v 0.828125 h -3.96875 V 69.261707 H 45.3138 v -4 q 0,-1.523438 -0.375,-2.085938 -0.375,-0.570312 -1.320312,-0.570312 -1,0 -1.523438,0.734375 -0.523437,0.726562 -0.523437,2.125 v 3.796875 h 1.25 v 0.828125 z"/>
	<path d="m 57.15755,66.089832 h -6.195312 v 0.0625 q 0,1.679687 0.632812,2.539062 0.632813,0.851563 1.867188,0.851563 0.945312,0 1.546875,-0.492188 0.609375,-0.5 0.851562,-1.476562 h 1.15625 q -0.34375,1.367187 -1.273437,2.054687 -0.921875,0.6875 -2.429688,0.6875 -1.820312,0 -2.929687,-1.195312 -1.101563,-1.203125 -1.101563,-3.1875 0,-1.96875 1.085938,-3.171875 1.085937,-1.203125 2.851562,-1.203125 1.882813,0 2.890625,1.164062 1.007813,1.15625 1.046875,3.367188 z m -1.695312,-0.828125 q -0.04687,-1.453125 -0.617188,-2.1875 -0.5625,-0.742188 -1.625,-0.742188 -0.992187,0 -1.5625,0.742188 -0.570312,0.742187 -0.695312,2.1875 z"/>
	<path d="m 61.90755,70.089832 -3.054687,-7.46875 H 57.90755 v -0.835938 h 3.820313 v 0.835938 h -1.328125 l 2.335937,5.710937 2.335938,-5.710937 h -1.242188 v -0.835938 h 3.117188 v 0.835938 h -0.929688 l -3.054687,7.46875 z"/>
	<path d="M 75.665363,66.089832 H 69.47005 v 0.0625 q 0,1.679687 0.632813,2.539062 0.632812,0.851563 1.867187,0.851563 0.945313,0 1.546875,-0.492188 0.609375,-0.5 0.851563,-1.476562 h 1.15625 q -0.34375,1.367187 -1.273438,2.054687 -0.921875,0.6875 -2.429687,0.6875 -1.820313,0 -2.929688,-1.195312 -1.101562,-1.203125 -1.101562,-3.1875 0,-1.96875 1.085937,-3.171875 1.085938,-1.203125 2.851563,-1.203125 1.882812,0 2.890625,1.164062 1.007812,1.15625 1.046875,3.367188 z M 73.97005,65.261707 q -0.04687,-1.453125 -0.617187,-2.1875 -0.5625,-0.742188 -1.625,-0.742188 -0.992188,0 -1.5625,0.742188 -0.570313,0.742187 -0.695313,2.1875 z"/>
	<path d="m 84.110675,61.769519 v 2.078125 H 83.28255 q -0.03906,-0.617187 -0.34375,-0.921875 -0.304687,-0.304687 -0.890625,-0.304687 -1.0625,0 -1.632812,0.734375 -0.5625,0.734375 -0.5625,2.109375 v 3.796875 h 1.664062 v 0.828125 h -4.398437 v -0.828125 h 1.296875 v -6.65625 h -1.375 v -0.820313 h 2.8125 v 1.476563 q 0.421875,-0.867188 1.085937,-1.28125 0.664063,-0.421875 1.617188,-0.421875 0.351562,0 0.734375,0.05469 0.390625,0.05469 0.820312,0.15625 z"/>
	<path d="m 96.079427,59.894519 h -0.75781 q -0.008,-0.585937 -0.33594,-0.890625 -0.32031,-0.304687 -0.937502,-0.304687 -0.804687,0 -1.132812,0.445312 -0.328125,0.4375 -0.328125,1.570313 v 1.070312 h 2.320309 v 0.835938 h -2.320309 v 6.640625 h 1.84375 v 0.828125 h -4.65625 v -0.828125 h 1.375 v -6.640625 h -1.375 v -0.835938 h 1.375 v -1.039062 q 0,-1.390625 0.71875,-2.101563 0.726562,-0.710937 2.125,-0.710937 0.523437,0 1.046879,0.09375 0.52343,0.09375 1.03906,0.289062 z"/>
	<path d="m 101.48568,67.480457 v -1.757813 h -1.851563 q -1.07032,0 -1.59375,0.460938 -0.52344,0.460937 -0.52344,1.414062 0,0.867188 0.53125,1.375 0.53125,0.507813 1.4375,0.507813 0.898443,0 1.445313,-0.554688 0.55469,-0.554687 0.55469,-1.445312 z m 1.4375,-2.578125 v 4.359375 h 1.28125 v 0.828125 h -2.71875 v -0.898438 q -0.47656,0.578125 -1.10156,0.851563 -0.625003,0.273437 -1.460943,0.273437 -1.38281,0 -2.19531,-0.734375 -0.8125,-0.734375 -0.8125,-1.984375 0,-1.289062 0.92968,-2 0.92969,-0.710937 2.625,-0.710937 h 2.015633 v -0.570313 q 0,-0.945312 -0.57813,-1.460937 -0.57031,-0.523438 -1.609373,-0.523438 -0.85938,0 -1.36719,0.390625 -0.50781,0.390625 -0.63281,1.15625 h -0.74219 v -1.679687 q 0.75,-0.320313 1.45313,-0.476563 0.71093,-0.164062 1.38281,-0.164062 1.726563,0 2.625003,0.859375 0.90625,0.851562 0.90625,2.484375 z"/>
	<path d="m 112.88412,67.597644 q -0.30469,1.328125 -1.17188,2.023438 -0.86719,0.695312 -2.24219,0.695312 -1.8125,0 -2.91406,-1.195312 -1.10156,-1.203125 -1.10156,-3.1875 0,-1.992188 1.10156,-3.179688 1.10156,-1.195312 2.91406,-1.195312 0.78907,0 1.57032,0.1875 0.78125,0.179687 1.57031,0.554687 v 2.125 h -0.83594 q -0.16406,-1.09375 -0.71875,-1.59375 -0.54687,-0.5 -1.57031,-0.5 -1.16406,0 -1.75781,0.90625 -0.59375,0.898438 -0.59375,2.695313 0,1.796875 0.58593,2.703125 0.59375,0.90625 1.76563,0.90625 0.92969,0 1.48437,-0.484375 0.55469,-0.484375 0.75782,-1.460938 z"/>
	<path d="m 122.29037,66.089832 h -6.19532 v 0.0625 q 0,1.679687 0.63282,2.539062 0.63281,0.851563 1.86718,0.851563 0.94532,0 1.54688,-0.492188 0.60937,-0.5 0.85156,-1.476562 h 1.15625 q -0.34375,1.367187 -1.27344,2.054687 -0.92187,0.6875 -2.42968,0.6875 -1.82032,0 -2.92969,-1.195312 -1.10156,-1.203125 -1.10156,-3.1875 0,-1.96875 1.08593,-3.171875 1.08594,-1.203125 2.85157,-1.203125 1.88281,0 2.89062,1.164062 1.00781,1.15625 1.04688,3.367188 z m -1.69532,-0.828125 q -0.0469,-1.453125 -0.61718,-2.1875 -0.5625,-0.742188 -1.625,-0.742188 -0.99219,0 -1.5625,0.742188 -0.57032,0.742187 -0.69532,2.1875 z"/>
	<path d="m 129.07162,89.628894 v -1.9375 h 0.82812 q 0.0312,0.929688 0.57813,1.390625 0.55468,0.460938 1.63281,0.460938 0.96875,0 1.47656,-0.359375 0.50781,-0.367188 0.50781,-1.0625 0,-0.546875 -0.375,-0.882813 -0.36718,-0.335937 -1.5625,-0.71875 l -1.03906,-0.351562 q -1.07031,-0.34375 -1.55469,-0.859375 -0.47656,-0.515625 -0.47656,-1.3125 0,-1.140625 0.83594,-1.789063 0.83594,-0.648437 2.3125,-0.648437 0.65625,0 1.38281,0.171875 0.72656,0.171875 1.5,0.5 v 1.8125 h -0.82812 q -0.0312,-0.804688 -0.5625,-1.257813 -0.53125,-0.453125 -1.44532,-0.453125 -0.90625,0 -1.375,0.320313 -0.46093,0.320312 -0.46093,0.960937 0,0.523438 0.35156,0.84375 0.35156,0.3125 1.40625,0.640625 l 1.14062,0.351563 q 1.17969,0.367187 1.69532,0.921875 0.52343,0.546875 0.52343,1.414062 0,1.179688 -0.90625,1.859375 -0.89843,0.671875 -2.48437,0.671875 -0.80469,0 -1.57031,-0.171875 -0.76563,-0.171875 -1.53125,-0.515625 z"/>
	<path d="m 141.19662,89.542957 q 1.15625,0 1.74218,-0.914063 0.59375,-0.914062 0.59375,-2.695312 0,-1.78125 -0.59375,-2.6875 -0.58593,-0.914063 -1.74218,-0.914063 -1.15625,0 -1.75,0.914063 -0.58594,0.90625 -0.58594,2.6875 0,1.78125 0.59375,2.695312 0.59375,0.914063 1.74219,0.914063 z m 0,0.773437 q -1.8125,0 -2.91407,-1.195312 -1.10156,-1.203125 -1.10156,-3.1875 0,-1.984375 1.09375,-3.179688 1.10156,-1.195312 2.92188,-1.195312 1.82031,0 2.91406,1.195312 1.10156,1.195313 1.10156,3.179688 0,1.984375 -1.10156,3.1875 -1.09375,1.195312 -2.91406,1.195312 z"/>
	<path d="m 154.38412,105.52733 v 0.82032 q 0,1.5 0.57031,2.28906 0.57812,0.78125 1.67187,0.78125 1.10157,0 1.66407,-0.88281 0.57031,-0.88282 0.57031,-2.60157 0,-1.72656 -0.57031,-2.60156 -0.5625,-0.875 -1.66407,-0.875 -1.09375,0 -1.67187,0.78906 -0.57031,0.78907 -0.57031,2.28125 z m -1.4375,-2.90625 h -1.38282 v -0.83593 h 2.82032 v 1.29687 q 0.42187,-0.78125 1.07031,-1.14844 0.65625,-0.375 1.61719,-0.375 1.53125,0 2.5,1.21094 0.96875,1.21094 0.96875,3.16406 0,1.95313 -0.96875,3.17188 -0.96875,1.21094 -2.5,1.21094 -0.96094,0 -1.61719,-0.36719 -0.64844,-0.375 -1.07031,-1.15625 v 3.78906 h 1.35937 v 0.83594 h -4.17969 v -0.83594 h 1.38282 z"/>
	<path d="m 164.6263,109.26171 h 1.35938 v 0.82812 h -4.17969 v -0.82812 h 1.38281 V 98.761707 h -1.38281 v -0.828125 h 2.82031 z"/>
	<path d="m 175.13412,106.08983 h -6.19532 v 0.0625 q 0,1.67969 0.63282,2.53907 0.63281,0.85156 1.86718,0.85156 0.94532,0 1.54688,-0.49219 0.60937,-0.5 0.85156,-1.47656 h 1.15625 q -0.34375,1.36719 -1.27344,2.05469 -0.92187,0.6875 -2.42968,0.6875 -1.82032,0 -2.92969,-1.19532 -1.10156,-1.20312 -1.10156,-3.1875 0,-1.96875 1.08593,-3.17187 1.08594,-1.20313 2.85157,-1.20313 1.88281,0 2.89062,1.16407 1.00781,1.15625 1.04688,3.36718 z m -1.69532,-0.82812 q -0.0469,-1.45313 -0.61718,-2.1875 -0.5625,-0.74219 -1.625,-0.74219 -0.99219,0 -1.5625,0.74219 -0.57032,0.74219 -0.69532,2.1875 z"/>
	<path d="m 182.29818,107.48046 v -1.75781 h -1.85156 q -1.07032,0 -1.59375,0.46093 -0.52344,0.46094 -0.52344,1.41407 0,0.86718 0.53125,1.375 0.53125,0.50781 1.4375,0.50781 0.89844,0 1.44531,-0.55469 0.55469,-0.55469 0.55469,-1.44531 z m 1.4375,-2.57813 v 4.35938 h 1.28125 v 0.82812 h -2.71875 v -0.89843 q -0.47656,0.57812 -1.10156,0.85156 -0.625,0.27344 -1.46094,0.27344 -1.38281,0 -2.19531,-0.73438 -0.8125,-0.73437 -0.8125,-1.98437 0,-1.28907 0.92968,-2 0.92969,-0.71094 2.625,-0.71094 h 2.01563 v -0.57031 q 0,-0.94532 -0.57813,-1.46094 -0.57031,-0.52344 -1.60937,-0.52344 -0.85938,0 -1.36719,0.39063 -0.50781,0.39062 -0.63281,1.15625 h -0.74219 v -1.67969 q 0.75,-0.32031 1.45313,-0.47656 0.71093,-0.16407 1.38281,-0.16407 1.72656,0 2.625,0.85938 0.90625,0.85156 0.90625,2.48437 z"/>
	<path d="m 186.36849,109.6289 v -1.9375 h 0.82813 q 0.0312,0.92968 0.57812,1.39062 0.55469,0.46094 1.63281,0.46094 0.96875,0 1.47657,-0.35938 0.50781,-0.36718 0.50781,-1.0625 0,-0.54687 -0.375,-0.88281 -0.36719,-0.33594 -1.5625,-0.71875 l -1.03906,-0.35156 q -1.07032,-0.34375 -1.55469,-0.85938 -0.47656,-0.51562 -0.47656,-1.3125 0,-1.14062 0.83593,-1.78906 0.83594,-0.64844 2.3125,-0.64844 0.65625,0 1.38282,0.17188 0.72656,0.17187 1.5,0.5 v 1.8125 h -0.82813 q -0.0312,-0.80469 -0.5625,-1.25781 -0.53125,-0.45313 -1.44531,-0.45313 -0.90625,0 -1.375,0.32031 -0.46094,0.32032 -0.46094,0.96094 0,0.52344 0.35156,0.84375 0.35157,0.3125 1.40625,0.64063 l 1.14063,0.35156 q 1.17969,0.36719 1.69531,0.92187 0.52344,0.54688 0.52344,1.41407 0,1.17968 -0.90625,1.85937 -0.89844,0.67188 -2.48438,0.67188 -0.80468,0 -1.57031,-0.17188 -0.76562,-0.17187 -1.53125,-0.51562 z"/>
	<path d="m 202.35287,106.08983 h -6.19532 v 0.0625 q 0,1.67969 0.63282,2.53907 0.63281,0.85156 1.86718,0.85156 0.94532,0 1.54688,-0.49219 0.60937,-0.5 0.85156,-1.47656 h 1.15625 q -0.34375,1.36719 -1.27344,2.05469 -0.92187,0.6875 -2.42968,0.6875 -1.82032,0 -2.92969,-1.19532 -1.10156,-1.20312 -1.10156,-3.1875 0,-1.96875 1.08593,-3.17187 1.08594,-1.20313 2.85157,-1.20313 1.88281,0 2.89062,1.16407 1.00781,1.15625 1.04688,3.36718 z m -1.69532,-0.82812 q -0.0469,-1.45313 -0.61718,-2.1875 -0.5625,-0.74219 -1.625,-0.74219 -0.99219,0 -1.5625,0.74219 -0.57032,0.74219 -0.69532,2.1875 z"/>
	<path d="m 216.52474,103.40233 q 0.41406,-0.91406 1.05469,-1.375 0.64844,-0.46875 1.50781,-0.46875 1.30469,0 1.94531,0.8125 0.64063,0.80469 0.64063,2.4375 v 4.45313 h 1.29687 v 0.82812 h -3.98437 v -0.82812 h 1.25 v -4.28906 q 0,-1.27344 -0.375,-1.8125 -0.375,-0.53907 -1.24219,-0.53907 -0.96094,0 -1.46875,0.72657 -0.5,0.72656 -0.5,2.11718 v 3.79688 h 1.25 v 0.82812 h -3.9375 v -0.82812 h 1.25 v -4.34375 q 0,-1.24219 -0.375,-1.76563 -0.375,-0.53125 -1.24219,-0.53125 -0.96093,0 -1.46875,0.72657 -0.5,0.72656 -0.5,2.11718 v 3.79688 h 1.25 v 0.82812 h -3.98437 v -0.82812 h 1.29687 v -6.65625 h -1.375 v -0.82031 h 2.8125 v 1.47656 q 0.39844,-0.82813 1.01563,-1.26563 0.61719,-0.4375 1.39844,-0.4375 0.96875,0 1.61718,0.48438 0.64844,0.47656 0.86719,1.35937 z"/>
	<path d="m 226.86068,111.61327 0.54687,-1.38281 -3.10156,-7.60938 h -0.94531 v -0.83593 h 3.82031 v 0.83593 h -1.32812 l 2.33593,5.71094 2.33594,-5.71094 h -1.24219 v -0.83593 h 3.11719 v 0.83593 h -0.92969 l -3.80468,9.34375 q -0.39063,0.96875 -0.86719,1.32032 -0.47656,0.35937 -1.34375,0.35937 -0.36719,0 -0.75781,-0.0625 -0.38282,-0.0625 -0.77344,-0.17969 v -1.58593 h 0.73437 q 0.0469,0.53125 0.26563,0.75781 0.22656,0.23437 0.69531,0.23437 0.42969,0 0.6875,-0.24218 0.26563,-0.23438 0.55469,-0.95313 z"/>
	<path d="m 245.82162,83.402332 q 0.41406,-0.914063 1.05468,-1.375 0.64844,-0.46875 1.50782,-0.46875 1.30468,0 1.94531,0.8125 0.64062,0.804687 0.64062,2.4375 v 4.453125 h 1.29688 v 0.828125 h -3.98438 v -0.828125 h 1.25 v -4.289063 q 0,-1.273437 -0.375,-1.8125 -0.375,-0.539062 -1.24218,-0.539062 -0.96094,0 -1.46875,0.726562 -0.5,0.726563 -0.5,2.117188 v 3.796875 h 1.25 v 0.828125 h -3.9375 v -0.828125 h 1.25 v -4.34375 q 0,-1.242188 -0.375,-1.765625 -0.375,-0.53125 -1.24219,-0.53125 -0.96094,0 -1.46875,0.726562 -0.5,0.726563 -0.5,2.117188 v 3.796875 h 1.25 v 0.828125 h -3.98438 v -0.828125 h 1.29688 v -6.65625 h -1.375 v -0.820313 h 2.8125 v 1.476563 q 0.39844,-0.828125 1.01562,-1.265625 0.61719,-0.4375 1.39844,-0.4375 0.96875,0 1.61719,0.484375 0.64844,0.476562 0.86719,1.359375 z"/>
	<path d="m 254.25912,79.207019 q 0,-0.359375 0.25781,-0.625 0.26562,-0.265625 0.63281,-0.265625 0.35938,0 0.61719,0.265625 0.26562,0.265625 0.26562,0.625 0,0.367188 -0.25781,0.625 -0.25781,0.257813 -0.625,0.257813 -0.36719,0 -0.63281,-0.257813 -0.25781,-0.257812 -0.25781,-0.625 z m 1.83593,10.054688 h 1.35938 v 0.828125 h -4.17188 v -0.828125 h 1.375 v -6.640625 h -1.375 v -0.835938 h 2.8125 z"/>
	<path d="m 258.47787,90.089832 v -0.828125 h 1.29687 v -6.640625 h -1.375 v -0.835938 h 2.8125 v 1.476563 q 0.39844,-0.84375 1.03125,-1.273438 0.64063,-0.429687 1.48438,-0.429687 1.375,0 2.02343,0.789062 0.64844,0.789063 0.64844,2.460938 v 4.453125 h 1.28125 v 0.828125 h -3.96875 v -0.828125 h 1.24219 v -4 q 0,-1.523438 -0.375,-2.085938 -0.375,-0.570312 -1.32031,-0.570312 -1,0 -1.52344,0.734375 -0.52344,0.726562 -0.52344,2.125 v 3.796875 h 1.25 v 0.828125 z"/>
	<path d="m 276.52474,89.261707 h 1.375 v 0.828125 h -2.8125 v -1.296875 q -0.42187,0.78125 -1.07812,1.15625 -0.64844,0.367187 -1.60938,0.367187 -1.53125,0 -2.50781,-1.210937 -0.96875,-1.21875 -0.96875,-3.171875 0,-1.953125 0.96875,-3.164063 0.96875,-1.210937 2.50781,-1.210937 0.96094,0 1.60938,0.375 0.65625,0.367187 1.07812,1.148437 v -4.320312 h -1.35937 v -0.828125 h 2.79687 z m -1.4375,-2.914063 v -0.820312 q 0,-1.492188 -0.57812,-2.28125 -0.57032,-0.789063 -1.66407,-0.789063 -1.10937,0 -1.67968,0.875 -0.5625,0.875 -0.5625,2.601563 0,1.71875 0.5625,2.601562 0.57031,0.882813 1.67968,0.882813 1.09375,0 1.66407,-0.78125 0.57812,-0.789063 0.57812,-2.289063 z"/>
	<path d="m 226.90554,127.63633 0.54687,-1.38281 -3.10156,-7.60938 h -0.94531 v -0.83594 h 3.82031 v 0.83594 h -1.32813 l 2.33594,5.71094 2.33594,-5.71094 h -1.24219 v -0.83594 h 3.11719 v 0.83594 h -0.92969 l -3.80469,9.34375 q -0.39062,0.96875 -0.86718,1.32031 -0.47657,0.35938 -1.34375,0.35938 -0.36719,0 -0.75782,-0.0625 -0.38281,-0.0625 -0.77343,-0.17969 v -1.58594 h 0.73437 q 0.0469,0.53125 0.26563,0.75782 0.22656,0.23437 0.69531,0.23437 0.42969,0 0.6875,-0.24219 0.26562,-0.23437 0.55469,-0.95312 z"/>
</svg>
